<mxfile host="Electron" agent="Mozilla/5.0 (Windows NT 10.0; Win64; x64) AppleWebKit/537.36 (KHTML, like Gecko) draw.io/26.0.7 Chrome/128.0.6613.186 Electron/32.2.5 Safari/537.36" version="26.0.7" pages="4">
  <diagram name="Class" id="MqZw-926TPQhPeod2S28">
    <mxGraphModel dx="543" dy="1088" grid="0" gridSize="10" guides="0" tooltips="1" connect="0" arrows="1" fold="1" page="0" pageScale="1" pageWidth="827" pageHeight="1169" math="0" shadow="0">
      <root>
        <mxCell id="0" />
        <mxCell id="1" parent="0" />
        <mxCell id="RjOvl86ER1_QlMXJibn9-1" value="Manager" style="swimlane;fontStyle=1;align=center;verticalAlign=top;childLayout=stackLayout;horizontal=1;startSize=26;horizontalStack=0;resizeParent=1;resizeParentMax=0;resizeLast=0;collapsible=1;marginBottom=0;whiteSpace=wrap;html=1;" parent="1" vertex="1">
          <mxGeometry x="2420" y="-146" width="160" height="318" as="geometry" />
        </mxCell>
        <mxCell id="RjOvl86ER1_QlMXJibn9-2" value="- jobs: List&amp;lt;Job&amp;gt;" style="text;strokeColor=none;fillColor=none;align=left;verticalAlign=top;spacingLeft=4;spacingRight=4;overflow=hidden;rotatable=0;points=[[0,0.5],[1,0.5]];portConstraint=eastwest;whiteSpace=wrap;html=1;" parent="RjOvl86ER1_QlMXJibn9-1" vertex="1">
          <mxGeometry y="26" width="160" height="26" as="geometry" />
        </mxCell>
        <mxCell id="H-jll6uQo6y_h8D83NWL-3" value="- limit: Int" style="text;strokeColor=none;fillColor=none;align=left;verticalAlign=top;spacingLeft=4;spacingRight=4;overflow=hidden;rotatable=0;points=[[0,0.5],[1,0.5]];portConstraint=eastwest;whiteSpace=wrap;html=1;" parent="RjOvl86ER1_QlMXJibn9-1" vertex="1">
          <mxGeometry y="52" width="160" height="26" as="geometry" />
        </mxCell>
        <mxCell id="H-jll6uQo6y_h8D83NWL-4" value="- logDestination: String" style="text;strokeColor=none;fillColor=none;align=left;verticalAlign=top;spacingLeft=4;spacingRight=4;overflow=hidden;rotatable=0;points=[[0,0.5],[1,0.5]];portConstraint=eastwest;whiteSpace=wrap;html=1;" parent="RjOvl86ER1_QlMXJibn9-1" vertex="1">
          <mxGeometry y="78" width="160" height="26" as="geometry" />
        </mxCell>
        <mxCell id="auvroOHV701cDTbwF7QX-1" value="- confDestination: String" style="text;strokeColor=none;fillColor=none;align=left;verticalAlign=top;spacingLeft=4;spacingRight=4;overflow=hidden;rotatable=0;points=[[0,0.5],[1,0.5]];portConstraint=eastwest;whiteSpace=wrap;html=1;" parent="RjOvl86ER1_QlMXJibn9-1" vertex="1">
          <mxGeometry y="104" width="160" height="26" as="geometry" />
        </mxCell>
        <mxCell id="RjOvl86ER1_QlMXJibn9-3" value="" style="line;strokeWidth=1;fillColor=none;align=left;verticalAlign=middle;spacingTop=-1;spacingLeft=3;spacingRight=3;rotatable=0;labelPosition=right;points=[];portConstraint=eastwest;strokeColor=inherit;" parent="RjOvl86ER1_QlMXJibn9-1" vertex="1">
          <mxGeometry y="130" width="160" height="8" as="geometry" />
        </mxCell>
        <mxCell id="RjOvl86ER1_QlMXJibn9-4" value="+ add(Job job): none" style="text;strokeColor=none;fillColor=none;align=left;verticalAlign=top;spacingLeft=4;spacingRight=4;overflow=hidden;rotatable=0;points=[[0,0.5],[1,0.5]];portConstraint=eastwest;whiteSpace=wrap;html=1;" parent="RjOvl86ER1_QlMXJibn9-1" vertex="1">
          <mxGeometry y="138" width="160" height="26" as="geometry" />
        </mxCell>
        <mxCell id="H-jll6uQo6y_h8D83NWL-5" value="+ remove(Job job): none" style="text;strokeColor=none;fillColor=none;align=left;verticalAlign=top;spacingLeft=4;spacingRight=4;overflow=hidden;rotatable=0;points=[[0,0.5],[1,0.5]];portConstraint=eastwest;whiteSpace=wrap;html=1;" parent="RjOvl86ER1_QlMXJibn9-1" vertex="1">
          <mxGeometry y="164" width="160" height="26" as="geometry" />
        </mxCell>
        <mxCell id="H-jll6uQo6y_h8D83NWL-6" value="+ execute(): none" style="text;strokeColor=none;fillColor=none;align=left;verticalAlign=top;spacingLeft=4;spacingRight=4;overflow=hidden;rotatable=0;points=[[0,0.5],[1,0.5]];portConstraint=eastwest;whiteSpace=wrap;html=1;" parent="RjOvl86ER1_QlMXJibn9-1" vertex="1">
          <mxGeometry y="190" width="160" height="26" as="geometry" />
        </mxCell>
        <mxCell id="H-jll6uQo6y_h8D83NWL-7" value="+ show(): none" style="text;strokeColor=none;fillColor=none;align=left;verticalAlign=top;spacingLeft=4;spacingRight=4;overflow=hidden;rotatable=0;points=[[0,0.5],[1,0.5]];portConstraint=eastwest;whiteSpace=wrap;html=1;" parent="RjOvl86ER1_QlMXJibn9-1" vertex="1">
          <mxGeometry y="216" width="160" height="26" as="geometry" />
        </mxCell>
        <mxCell id="auvroOHV701cDTbwF7QX-2" value="+ create(String name, String source, String destination, String Type): none" style="text;strokeColor=none;fillColor=none;align=left;verticalAlign=top;spacingLeft=4;spacingRight=4;overflow=hidden;rotatable=0;points=[[0,0.5],[1,0.5]];portConstraint=eastwest;whiteSpace=wrap;html=1;" parent="RjOvl86ER1_QlMXJibn9-1" vertex="1">
          <mxGeometry y="242" width="160" height="76" as="geometry" />
        </mxCell>
        <mxCell id="RjOvl86ER1_QlMXJibn9-5" value="Job" style="swimlane;fontStyle=1;align=center;verticalAlign=top;childLayout=stackLayout;horizontal=1;startSize=26;horizontalStack=0;resizeParent=1;resizeParentMax=0;resizeLast=0;collapsible=1;marginBottom=0;whiteSpace=wrap;html=1;" parent="1" vertex="1">
          <mxGeometry x="2644" y="-146" width="160" height="268" as="geometry" />
        </mxCell>
        <mxCell id="RjOvl86ER1_QlMXJibn9-6" value="- name: String" style="text;strokeColor=none;fillColor=none;align=left;verticalAlign=top;spacingLeft=4;spacingRight=4;overflow=hidden;rotatable=0;points=[[0,0.5],[1,0.5]];portConstraint=eastwest;whiteSpace=wrap;html=1;" parent="RjOvl86ER1_QlMXJibn9-5" vertex="1">
          <mxGeometry y="26" width="160" height="26" as="geometry" />
        </mxCell>
        <mxCell id="RjOvl86ER1_QlMXJibn9-21" value="- source: String" style="text;strokeColor=none;fillColor=none;align=left;verticalAlign=top;spacingLeft=4;spacingRight=4;overflow=hidden;rotatable=0;points=[[0,0.5],[1,0.5]];portConstraint=eastwest;whiteSpace=wrap;html=1;" parent="RjOvl86ER1_QlMXJibn9-5" vertex="1">
          <mxGeometry y="52" width="160" height="26" as="geometry" />
        </mxCell>
        <mxCell id="RjOvl86ER1_QlMXJibn9-22" value="- destination: String" style="text;strokeColor=none;fillColor=none;align=left;verticalAlign=top;spacingLeft=4;spacingRight=4;overflow=hidden;rotatable=0;points=[[0,0.5],[1,0.5]];portConstraint=eastwest;whiteSpace=wrap;html=1;" parent="RjOvl86ER1_QlMXJibn9-5" vertex="1">
          <mxGeometry y="78" width="160" height="26" as="geometry" />
        </mxCell>
        <mxCell id="RjOvl86ER1_QlMXJibn9-23" value="- type: String" style="text;strokeColor=none;fillColor=none;align=left;verticalAlign=top;spacingLeft=4;spacingRight=4;overflow=hidden;rotatable=0;points=[[0,0.5],[1,0.5]];portConstraint=eastwest;whiteSpace=wrap;html=1;" parent="RjOvl86ER1_QlMXJibn9-5" vertex="1">
          <mxGeometry y="104" width="160" height="26" as="geometry" />
        </mxCell>
        <mxCell id="RjOvl86ER1_QlMXJibn9-7" value="" style="line;strokeWidth=1;fillColor=none;align=left;verticalAlign=middle;spacingTop=-1;spacingLeft=3;spacingRight=3;rotatable=0;labelPosition=right;points=[];portConstraint=eastwest;strokeColor=inherit;" parent="RjOvl86ER1_QlMXJibn9-5" vertex="1">
          <mxGeometry y="130" width="160" height="8" as="geometry" />
        </mxCell>
        <mxCell id="RjOvl86ER1_QlMXJibn9-8" value="+ save(): none" style="text;strokeColor=none;fillColor=none;align=left;verticalAlign=top;spacingLeft=4;spacingRight=4;overflow=hidden;rotatable=0;points=[[0,0.5],[1,0.5]];portConstraint=eastwest;whiteSpace=wrap;html=1;" parent="RjOvl86ER1_QlMXJibn9-5" vertex="1">
          <mxGeometry y="138" width="160" height="26" as="geometry" />
        </mxCell>
        <mxCell id="RjOvl86ER1_QlMXJibn9-24" value="+ config(): none" style="text;strokeColor=none;fillColor=none;align=left;verticalAlign=top;spacingLeft=4;spacingRight=4;overflow=hidden;rotatable=0;points=[[0,0.5],[1,0.5]];portConstraint=eastwest;whiteSpace=wrap;html=1;" parent="RjOvl86ER1_QlMXJibn9-5" vertex="1">
          <mxGeometry y="164" width="160" height="26" as="geometry" />
        </mxCell>
        <mxCell id="RjOvl86ER1_QlMXJibn9-25" value="+ stop(): none" style="text;strokeColor=none;fillColor=none;align=left;verticalAlign=top;spacingLeft=4;spacingRight=4;overflow=hidden;rotatable=0;points=[[0,0.5],[1,0.5]];portConstraint=eastwest;whiteSpace=wrap;html=1;" parent="RjOvl86ER1_QlMXJibn9-5" vertex="1">
          <mxGeometry y="190" width="160" height="26" as="geometry" />
        </mxCell>
        <mxCell id="RjOvl86ER1_QlMXJibn9-26" value="+ delete(): none" style="text;strokeColor=none;fillColor=none;align=left;verticalAlign=top;spacingLeft=4;spacingRight=4;overflow=hidden;rotatable=0;points=[[0,0.5],[1,0.5]];portConstraint=eastwest;whiteSpace=wrap;html=1;" parent="RjOvl86ER1_QlMXJibn9-5" vertex="1">
          <mxGeometry y="216" width="160" height="26" as="geometry" />
        </mxCell>
        <mxCell id="RjOvl86ER1_QlMXJibn9-27" value="+ start(): none" style="text;strokeColor=none;fillColor=none;align=left;verticalAlign=top;spacingLeft=4;spacingRight=4;overflow=hidden;rotatable=0;points=[[0,0.5],[1,0.5]];portConstraint=eastwest;whiteSpace=wrap;html=1;" parent="RjOvl86ER1_QlMXJibn9-5" vertex="1">
          <mxGeometry y="242" width="160" height="26" as="geometry" />
        </mxCell>
        <mxCell id="RjOvl86ER1_QlMXJibn9-9" value="Log" style="swimlane;fontStyle=1;align=center;verticalAlign=top;childLayout=stackLayout;horizontal=1;startSize=26;horizontalStack=0;resizeParent=1;resizeParentMax=0;resizeLast=0;collapsible=1;marginBottom=0;whiteSpace=wrap;html=1;" parent="1" vertex="1">
          <mxGeometry x="2894" y="78" width="193" height="242" as="geometry" />
        </mxCell>
        <mxCell id="RjOvl86ER1_QlMXJibn9-10" value="- datetime: DateTime" style="text;strokeColor=none;fillColor=none;align=left;verticalAlign=top;spacingLeft=4;spacingRight=4;overflow=hidden;rotatable=0;points=[[0,0.5],[1,0.5]];portConstraint=eastwest;whiteSpace=wrap;html=1;" parent="RjOvl86ER1_QlMXJibn9-9" vertex="1">
          <mxGeometry y="26" width="193" height="26" as="geometry" />
        </mxCell>
        <mxCell id="RjOvl86ER1_QlMXJibn9-28" value="- name: String" style="text;strokeColor=none;fillColor=none;align=left;verticalAlign=top;spacingLeft=4;spacingRight=4;overflow=hidden;rotatable=0;points=[[0,0.5],[1,0.5]];portConstraint=eastwest;whiteSpace=wrap;html=1;" parent="RjOvl86ER1_QlMXJibn9-9" vertex="1">
          <mxGeometry y="52" width="193" height="26" as="geometry" />
        </mxCell>
        <mxCell id="RjOvl86ER1_QlMXJibn9-29" value="- source: String" style="text;strokeColor=none;fillColor=none;align=left;verticalAlign=top;spacingLeft=4;spacingRight=4;overflow=hidden;rotatable=0;points=[[0,0.5],[1,0.5]];portConstraint=eastwest;whiteSpace=wrap;html=1;" parent="RjOvl86ER1_QlMXJibn9-9" vertex="1">
          <mxGeometry y="78" width="193" height="26" as="geometry" />
        </mxCell>
        <mxCell id="RjOvl86ER1_QlMXJibn9-31" value="- destination: String" style="text;strokeColor=none;fillColor=none;align=left;verticalAlign=top;spacingLeft=4;spacingRight=4;overflow=hidden;rotatable=0;points=[[0,0.5],[1,0.5]];portConstraint=eastwest;whiteSpace=wrap;html=1;" parent="RjOvl86ER1_QlMXJibn9-9" vertex="1">
          <mxGeometry y="104" width="193" height="26" as="geometry" />
        </mxCell>
        <mxCell id="RjOvl86ER1_QlMXJibn9-30" value="- size: Float" style="text;strokeColor=none;fillColor=none;align=left;verticalAlign=top;spacingLeft=4;spacingRight=4;overflow=hidden;rotatable=0;points=[[0,0.5],[1,0.5]];portConstraint=eastwest;whiteSpace=wrap;html=1;" parent="RjOvl86ER1_QlMXJibn9-9" vertex="1">
          <mxGeometry y="130" width="193" height="26" as="geometry" />
        </mxCell>
        <mxCell id="RjOvl86ER1_QlMXJibn9-32" value="- tt: Float" style="text;strokeColor=none;fillColor=none;align=left;verticalAlign=top;spacingLeft=4;spacingRight=4;overflow=hidden;rotatable=0;points=[[0,0.5],[1,0.5]];portConstraint=eastwest;whiteSpace=wrap;html=1;" parent="RjOvl86ER1_QlMXJibn9-9" vertex="1">
          <mxGeometry y="156" width="193" height="26" as="geometry" />
        </mxCell>
        <mxCell id="RjOvl86ER1_QlMXJibn9-11" value="" style="line;strokeWidth=1;fillColor=none;align=left;verticalAlign=middle;spacingTop=-1;spacingLeft=3;spacingRight=3;rotatable=0;labelPosition=right;points=[];portConstraint=eastwest;strokeColor=inherit;" parent="RjOvl86ER1_QlMXJibn9-9" vertex="1">
          <mxGeometry y="182" width="193" height="8" as="geometry" />
        </mxCell>
        <mxCell id="RjOvl86ER1_QlMXJibn9-12" value="+ write(String message): none" style="text;strokeColor=none;fillColor=none;align=left;verticalAlign=top;spacingLeft=4;spacingRight=4;overflow=hidden;rotatable=0;points=[[0,0.5],[1,0.5]];portConstraint=eastwest;whiteSpace=wrap;html=1;" parent="RjOvl86ER1_QlMXJibn9-9" vertex="1">
          <mxGeometry y="190" width="193" height="26" as="geometry" />
        </mxCell>
        <mxCell id="RjOvl86ER1_QlMXJibn9-33" value="+ show(): none" style="text;strokeColor=none;fillColor=none;align=left;verticalAlign=top;spacingLeft=4;spacingRight=4;overflow=hidden;rotatable=0;points=[[0,0.5],[1,0.5]];portConstraint=eastwest;whiteSpace=wrap;html=1;" parent="RjOvl86ER1_QlMXJibn9-9" vertex="1">
          <mxGeometry y="216" width="193" height="26" as="geometry" />
        </mxCell>
        <mxCell id="RjOvl86ER1_QlMXJibn9-13" value="Status" style="swimlane;fontStyle=1;align=center;verticalAlign=top;childLayout=stackLayout;horizontal=1;startSize=26;horizontalStack=0;resizeParent=1;resizeParentMax=0;resizeLast=0;collapsible=1;marginBottom=0;whiteSpace=wrap;html=1;" parent="1" vertex="1">
          <mxGeometry x="2891" y="-263" width="160" height="268" as="geometry" />
        </mxCell>
        <mxCell id="RjOvl86ER1_QlMXJibn9-14" value="- name: String" style="text;strokeColor=none;fillColor=none;align=left;verticalAlign=top;spacingLeft=4;spacingRight=4;overflow=hidden;rotatable=0;points=[[0,0.5],[1,0.5]];portConstraint=eastwest;whiteSpace=wrap;html=1;" parent="RjOvl86ER1_QlMXJibn9-13" vertex="1">
          <mxGeometry y="26" width="160" height="26" as="geometry" />
        </mxCell>
        <mxCell id="RjOvl86ER1_QlMXJibn9-34" value="- datetime: DateTime" style="text;strokeColor=none;fillColor=none;align=left;verticalAlign=top;spacingLeft=4;spacingRight=4;overflow=hidden;rotatable=0;points=[[0,0.5],[1,0.5]];portConstraint=eastwest;whiteSpace=wrap;html=1;" parent="RjOvl86ER1_QlMXJibn9-13" vertex="1">
          <mxGeometry y="52" width="160" height="26" as="geometry" />
        </mxCell>
        <mxCell id="RjOvl86ER1_QlMXJibn9-35" value="- state: Bool" style="text;strokeColor=none;fillColor=none;align=left;verticalAlign=top;spacingLeft=4;spacingRight=4;overflow=hidden;rotatable=0;points=[[0,0.5],[1,0.5]];portConstraint=eastwest;whiteSpace=wrap;html=1;" parent="RjOvl86ER1_QlMXJibn9-13" vertex="1">
          <mxGeometry y="78" width="160" height="26" as="geometry" />
        </mxCell>
        <mxCell id="RjOvl86ER1_QlMXJibn9-36" value="- tftc: Float" style="text;strokeColor=none;fillColor=none;align=left;verticalAlign=top;spacingLeft=4;spacingRight=4;overflow=hidden;rotatable=0;points=[[0,0.5],[1,0.5]];portConstraint=eastwest;whiteSpace=wrap;html=1;" parent="RjOvl86ER1_QlMXJibn9-13" vertex="1">
          <mxGeometry y="104" width="160" height="26" as="geometry" />
        </mxCell>
        <mxCell id="RjOvl86ER1_QlMXJibn9-37" value="- tfs: Float" style="text;strokeColor=none;fillColor=none;align=left;verticalAlign=top;spacingLeft=4;spacingRight=4;overflow=hidden;rotatable=0;points=[[0,0.5],[1,0.5]];portConstraint=eastwest;whiteSpace=wrap;html=1;" parent="RjOvl86ER1_QlMXJibn9-13" vertex="1">
          <mxGeometry y="130" width="160" height="26" as="geometry" />
        </mxCell>
        <mxCell id="RjOvl86ER1_QlMXJibn9-38" value="- progress: Progress" style="text;strokeColor=none;fillColor=none;align=left;verticalAlign=top;spacingLeft=4;spacingRight=4;overflow=hidden;rotatable=0;points=[[0,0.5],[1,0.5]];portConstraint=eastwest;whiteSpace=wrap;html=1;" parent="RjOvl86ER1_QlMXJibn9-13" vertex="1">
          <mxGeometry y="156" width="160" height="26" as="geometry" />
        </mxCell>
        <mxCell id="RjOvl86ER1_QlMXJibn9-15" value="" style="line;strokeWidth=1;fillColor=none;align=left;verticalAlign=middle;spacingTop=-1;spacingLeft=3;spacingRight=3;rotatable=0;labelPosition=right;points=[];portConstraint=eastwest;strokeColor=inherit;" parent="RjOvl86ER1_QlMXJibn9-13" vertex="1">
          <mxGeometry y="182" width="160" height="8" as="geometry" />
        </mxCell>
        <mxCell id="RjOvl86ER1_QlMXJibn9-16" value="+ save(): none" style="text;strokeColor=none;fillColor=none;align=left;verticalAlign=top;spacingLeft=4;spacingRight=4;overflow=hidden;rotatable=0;points=[[0,0.5],[1,0.5]];portConstraint=eastwest;whiteSpace=wrap;html=1;" parent="RjOvl86ER1_QlMXJibn9-13" vertex="1">
          <mxGeometry y="190" width="160" height="26" as="geometry" />
        </mxCell>
        <mxCell id="RjOvl86ER1_QlMXJibn9-39" value="+ showProgress(): none" style="text;strokeColor=none;fillColor=none;align=left;verticalAlign=top;spacingLeft=4;spacingRight=4;overflow=hidden;rotatable=0;points=[[0,0.5],[1,0.5]];portConstraint=eastwest;whiteSpace=wrap;html=1;" parent="RjOvl86ER1_QlMXJibn9-13" vertex="1">
          <mxGeometry y="216" width="160" height="26" as="geometry" />
        </mxCell>
        <mxCell id="RjOvl86ER1_QlMXJibn9-40" value="+ showState(): none" style="text;strokeColor=none;fillColor=none;align=left;verticalAlign=top;spacingLeft=4;spacingRight=4;overflow=hidden;rotatable=0;points=[[0,0.5],[1,0.5]];portConstraint=eastwest;whiteSpace=wrap;html=1;" parent="RjOvl86ER1_QlMXJibn9-13" vertex="1">
          <mxGeometry y="242" width="160" height="26" as="geometry" />
        </mxCell>
        <mxCell id="RjOvl86ER1_QlMXJibn9-17" value="Progress" style="swimlane;fontStyle=1;align=center;verticalAlign=top;childLayout=stackLayout;horizontal=1;startSize=26;horizontalStack=0;resizeParent=1;resizeParentMax=0;resizeLast=0;collapsible=1;marginBottom=0;whiteSpace=wrap;html=1;" parent="1" vertex="1">
          <mxGeometry x="3117" y="-185" width="160" height="138" as="geometry" />
        </mxCell>
        <mxCell id="RjOvl86ER1_QlMXJibn9-18" value="- filesLeft: Int" style="text;strokeColor=none;fillColor=none;align=left;verticalAlign=top;spacingLeft=4;spacingRight=4;overflow=hidden;rotatable=0;points=[[0,0.5],[1,0.5]];portConstraint=eastwest;whiteSpace=wrap;html=1;" parent="RjOvl86ER1_QlMXJibn9-17" vertex="1">
          <mxGeometry y="26" width="160" height="26" as="geometry" />
        </mxCell>
        <mxCell id="RjOvl86ER1_QlMXJibn9-41" value="- tfsl: Float" style="text;strokeColor=none;fillColor=none;align=left;verticalAlign=top;spacingLeft=4;spacingRight=4;overflow=hidden;rotatable=0;points=[[0,0.5],[1,0.5]];portConstraint=eastwest;whiteSpace=wrap;html=1;" parent="RjOvl86ER1_QlMXJibn9-17" vertex="1">
          <mxGeometry y="52" width="160" height="26" as="geometry" />
        </mxCell>
        <mxCell id="H-jll6uQo6y_h8D83NWL-1" value="- source: String" style="text;strokeColor=none;fillColor=none;align=left;verticalAlign=top;spacingLeft=4;spacingRight=4;overflow=hidden;rotatable=0;points=[[0,0.5],[1,0.5]];portConstraint=eastwest;whiteSpace=wrap;html=1;" parent="RjOvl86ER1_QlMXJibn9-17" vertex="1">
          <mxGeometry y="78" width="160" height="26" as="geometry" />
        </mxCell>
        <mxCell id="H-jll6uQo6y_h8D83NWL-2" value="- destination: String" style="text;strokeColor=none;fillColor=none;align=left;verticalAlign=top;spacingLeft=4;spacingRight=4;overflow=hidden;rotatable=0;points=[[0,0.5],[1,0.5]];portConstraint=eastwest;whiteSpace=wrap;html=1;" parent="RjOvl86ER1_QlMXJibn9-17" vertex="1">
          <mxGeometry y="104" width="160" height="26" as="geometry" />
        </mxCell>
        <mxCell id="RjOvl86ER1_QlMXJibn9-19" value="" style="line;strokeWidth=1;fillColor=none;align=left;verticalAlign=middle;spacingTop=-1;spacingLeft=3;spacingRight=3;rotatable=0;labelPosition=right;points=[];portConstraint=eastwest;strokeColor=inherit;" parent="RjOvl86ER1_QlMXJibn9-17" vertex="1">
          <mxGeometry y="130" width="160" height="8" as="geometry" />
        </mxCell>
        <mxCell id="76SRMlMD24U7I7LeQ29O-1" value="tfsl = Total Files Size Left&lt;div&gt;tftc = Total Files To Copy&amp;nbsp;&lt;/div&gt;&lt;div&gt;tfs = Total Files Size&lt;/div&gt;&lt;div&gt;tt = Transfer Time&lt;/div&gt;" style="text;html=1;align=center;verticalAlign=middle;whiteSpace=wrap;rounded=0;" parent="1" vertex="1">
          <mxGeometry x="2099" y="878" width="222" height="62" as="geometry" />
        </mxCell>
        <mxCell id="Gjrfv0GJ9AB6tGUk-FSi-4" value="Job" style="endArrow=block;endFill=1;html=1;edgeStyle=orthogonalEdgeStyle;align=left;verticalAlign=top;rounded=0;entryX=1.007;entryY=1.052;entryDx=0;entryDy=0;entryPerimeter=0;exitX=-0.011;exitY=0.065;exitDx=0;exitDy=0;exitPerimeter=0;" parent="1" source="RjOvl86ER1_QlMXJibn9-23" target="H-jll6uQo6y_h8D83NWL-4" edge="1">
          <mxGeometry x="-0.3084" y="-3" relative="1" as="geometry">
            <mxPoint x="2520" y="178" as="sourcePoint" />
            <mxPoint x="2680" y="178" as="targetPoint" />
            <mxPoint as="offset" />
          </mxGeometry>
        </mxCell>
        <mxCell id="Gjrfv0GJ9AB6tGUk-FSi-5" value="5" style="edgeLabel;resizable=0;html=1;align=left;verticalAlign=bottom;" parent="Gjrfv0GJ9AB6tGUk-FSi-4" connectable="0" vertex="1">
          <mxGeometry x="-1" relative="1" as="geometry">
            <mxPoint x="-13" y="-3" as="offset" />
          </mxGeometry>
        </mxCell>
        <mxCell id="Gjrfv0GJ9AB6tGUk-FSi-7" style="edgeStyle=orthogonalEdgeStyle;rounded=0;orthogonalLoop=1;jettySize=auto;html=1;entryX=1.002;entryY=0.481;entryDx=0;entryDy=0;entryPerimeter=0;endArrow=diamondThin;endFill=0;" parent="1" source="RjOvl86ER1_QlMXJibn9-41" target="RjOvl86ER1_QlMXJibn9-37" edge="1">
          <mxGeometry relative="1" as="geometry" />
        </mxCell>
        <mxCell id="Gjrfv0GJ9AB6tGUk-FSi-8" style="edgeStyle=orthogonalEdgeStyle;rounded=0;orthogonalLoop=1;jettySize=auto;html=1;entryX=1.014;entryY=0.604;entryDx=0;entryDy=0;entryPerimeter=0;endArrow=diamondThin;endFill=1;" parent="1" source="RjOvl86ER1_QlMXJibn9-10" target="RjOvl86ER1_QlMXJibn9-23" edge="1">
          <mxGeometry relative="1" as="geometry" />
        </mxCell>
        <mxCell id="Gjrfv0GJ9AB6tGUk-FSi-9" style="edgeStyle=orthogonalEdgeStyle;rounded=0;orthogonalLoop=1;jettySize=auto;html=1;entryX=1.011;entryY=0.56;entryDx=0;entryDy=0;entryPerimeter=0;endArrow=diamondThin;endFill=1;" parent="1" source="RjOvl86ER1_QlMXJibn9-36" target="RjOvl86ER1_QlMXJibn9-22" edge="1">
          <mxGeometry relative="1" as="geometry" />
        </mxCell>
        <mxCell id="Sknnawx_UnGMBE0QyGvW-1" value="&lt;b&gt;ManagerModel&lt;/b&gt;" style="swimlane;fontStyle=0;childLayout=stackLayout;horizontal=1;startSize=26;fillColor=none;horizontalStack=0;resizeParent=1;resizeParentMax=0;resizeLast=0;collapsible=1;marginBottom=0;whiteSpace=wrap;html=1;" parent="1" vertex="1">
          <mxGeometry x="1857" y="276" width="170" height="78" as="geometry" />
        </mxCell>
        <mxCell id="Sknnawx_UnGMBE0QyGvW-5" value="+ jobs: List&amp;lt;Job&amp;gt;" style="text;strokeColor=none;fillColor=none;align=left;verticalAlign=top;spacingLeft=4;spacingRight=4;overflow=hidden;rotatable=0;points=[[0,0.5],[1,0.5]];portConstraint=eastwest;whiteSpace=wrap;html=1;" parent="Sknnawx_UnGMBE0QyGvW-1" vertex="1">
          <mxGeometry y="26" width="170" height="26" as="geometry" />
        </mxCell>
        <mxCell id="Sknnawx_UnGMBE0QyGvW-6" value="+ limit: Int" style="text;strokeColor=none;fillColor=none;align=left;verticalAlign=top;spacingLeft=4;spacingRight=4;overflow=hidden;rotatable=0;points=[[0,0.5],[1,0.5]];portConstraint=eastwest;whiteSpace=wrap;html=1;" parent="Sknnawx_UnGMBE0QyGvW-1" vertex="1">
          <mxGeometry y="52" width="170" height="26" as="geometry" />
        </mxCell>
        <mxCell id="Sknnawx_UnGMBE0QyGvW-9" value="&lt;b&gt;ManagerService&lt;/b&gt;" style="swimlane;fontStyle=0;childLayout=stackLayout;horizontal=1;startSize=26;fillColor=none;horizontalStack=0;resizeParent=1;resizeParentMax=0;resizeLast=0;collapsible=1;marginBottom=0;whiteSpace=wrap;html=1;" parent="1" vertex="1">
          <mxGeometry x="1433" y="276" width="170" height="130" as="geometry" />
        </mxCell>
        <mxCell id="Sknnawx_UnGMBE0QyGvW-14" value="+ Add(Job job): void" style="text;strokeColor=none;fillColor=none;align=left;verticalAlign=top;spacingLeft=4;spacingRight=4;overflow=hidden;rotatable=0;points=[[0,0.5],[1,0.5]];portConstraint=eastwest;whiteSpace=wrap;html=1;" parent="Sknnawx_UnGMBE0QyGvW-9" vertex="1">
          <mxGeometry y="26" width="170" height="26" as="geometry" />
        </mxCell>
        <mxCell id="Sknnawx_UnGMBE0QyGvW-16" value="+ Execute(): void" style="text;strokeColor=none;fillColor=none;align=left;verticalAlign=top;spacingLeft=4;spacingRight=4;overflow=hidden;rotatable=0;points=[[0,0.5],[1,0.5]];portConstraint=eastwest;whiteSpace=wrap;html=1;" parent="Sknnawx_UnGMBE0QyGvW-9" vertex="1">
          <mxGeometry y="52" width="170" height="26" as="geometry" />
        </mxCell>
        <mxCell id="Sknnawx_UnGMBE0QyGvW-15" value="+ Remove(Job job): void" style="text;strokeColor=none;fillColor=none;align=left;verticalAlign=top;spacingLeft=4;spacingRight=4;overflow=hidden;rotatable=0;points=[[0,0.5],[1,0.5]];portConstraint=eastwest;whiteSpace=wrap;html=1;" parent="Sknnawx_UnGMBE0QyGvW-9" vertex="1">
          <mxGeometry y="78" width="170" height="26" as="geometry" />
        </mxCell>
        <mxCell id="Sknnawx_UnGMBE0QyGvW-96" value="+ GetInstance(): void" style="text;strokeColor=none;fillColor=none;align=left;verticalAlign=top;spacingLeft=4;spacingRight=4;overflow=hidden;rotatable=0;points=[[0,0.5],[1,0.5]];portConstraint=eastwest;whiteSpace=wrap;html=1;" parent="Sknnawx_UnGMBE0QyGvW-9" vertex="1">
          <mxGeometry y="104" width="170" height="26" as="geometry" />
        </mxCell>
        <mxCell id="Sknnawx_UnGMBE0QyGvW-19" value="JobService" style="swimlane;fontStyle=1;align=center;verticalAlign=top;childLayout=stackLayout;horizontal=1;startSize=30;horizontalStack=0;resizeParent=1;resizeParentMax=0;resizeLast=0;collapsible=1;marginBottom=0;whiteSpace=wrap;html=1;" parent="1" vertex="1">
          <mxGeometry x="1442" y="456" width="160" height="134" as="geometry" />
        </mxCell>
        <mxCell id="Sknnawx_UnGMBE0QyGvW-27" value="+ Stop(): void" style="text;strokeColor=none;fillColor=none;align=left;verticalAlign=top;spacingLeft=4;spacingRight=4;overflow=hidden;rotatable=0;points=[[0,0.5],[1,0.5]];portConstraint=eastwest;whiteSpace=wrap;html=1;" parent="Sknnawx_UnGMBE0QyGvW-19" vertex="1">
          <mxGeometry y="30" width="160" height="26" as="geometry" />
        </mxCell>
        <mxCell id="Sknnawx_UnGMBE0QyGvW-29" value="+ Start(): void" style="text;strokeColor=none;fillColor=none;align=left;verticalAlign=top;spacingLeft=4;spacingRight=4;overflow=hidden;rotatable=0;points=[[0,0.5],[1,0.5]];portConstraint=eastwest;whiteSpace=wrap;html=1;" parent="Sknnawx_UnGMBE0QyGvW-19" vertex="1">
          <mxGeometry y="56" width="160" height="26" as="geometry" />
        </mxCell>
        <mxCell id="Sknnawx_UnGMBE0QyGvW-174" value="- DifferentialBackup(): void" style="text;strokeColor=none;fillColor=none;align=left;verticalAlign=top;spacingLeft=4;spacingRight=4;overflow=hidden;rotatable=0;points=[[0,0.5],[1,0.5]];portConstraint=eastwest;whiteSpace=wrap;html=1;" parent="Sknnawx_UnGMBE0QyGvW-19" vertex="1">
          <mxGeometry y="82" width="160" height="26" as="geometry" />
        </mxCell>
        <mxCell id="Sknnawx_UnGMBE0QyGvW-175" value="- CompleteBackup(): void" style="text;strokeColor=none;fillColor=none;align=left;verticalAlign=top;spacingLeft=4;spacingRight=4;overflow=hidden;rotatable=0;points=[[0,0.5],[1,0.5]];portConstraint=eastwest;whiteSpace=wrap;html=1;" parent="Sknnawx_UnGMBE0QyGvW-19" vertex="1">
          <mxGeometry y="108" width="160" height="26" as="geometry" />
        </mxCell>
        <mxCell id="Sknnawx_UnGMBE0QyGvW-30" value="JobModel" style="swimlane;fontStyle=1;align=center;verticalAlign=top;childLayout=stackLayout;horizontal=1;startSize=26;horizontalStack=0;resizeParent=1;resizeParentMax=0;resizeLast=0;collapsible=1;marginBottom=0;whiteSpace=wrap;html=1;" parent="1" vertex="1">
          <mxGeometry x="1868" y="417" width="160" height="130" as="geometry" />
        </mxCell>
        <mxCell id="Sknnawx_UnGMBE0QyGvW-31" value="+ name: String" style="text;strokeColor=none;fillColor=none;align=left;verticalAlign=top;spacingLeft=4;spacingRight=4;overflow=hidden;rotatable=0;points=[[0,0.5],[1,0.5]];portConstraint=eastwest;whiteSpace=wrap;html=1;" parent="Sknnawx_UnGMBE0QyGvW-30" vertex="1">
          <mxGeometry y="26" width="160" height="26" as="geometry" />
        </mxCell>
        <mxCell id="Sknnawx_UnGMBE0QyGvW-32" value="+ source: String" style="text;strokeColor=none;fillColor=none;align=left;verticalAlign=top;spacingLeft=4;spacingRight=4;overflow=hidden;rotatable=0;points=[[0,0.5],[1,0.5]];portConstraint=eastwest;whiteSpace=wrap;html=1;" parent="Sknnawx_UnGMBE0QyGvW-30" vertex="1">
          <mxGeometry y="52" width="160" height="26" as="geometry" />
        </mxCell>
        <mxCell id="Sknnawx_UnGMBE0QyGvW-33" value="+ destination: String" style="text;strokeColor=none;fillColor=none;align=left;verticalAlign=top;spacingLeft=4;spacingRight=4;overflow=hidden;rotatable=0;points=[[0,0.5],[1,0.5]];portConstraint=eastwest;whiteSpace=wrap;html=1;" parent="Sknnawx_UnGMBE0QyGvW-30" vertex="1">
          <mxGeometry y="78" width="160" height="26" as="geometry" />
        </mxCell>
        <mxCell id="Sknnawx_UnGMBE0QyGvW-34" value="+ type: String" style="text;strokeColor=none;fillColor=none;align=left;verticalAlign=top;spacingLeft=4;spacingRight=4;overflow=hidden;rotatable=0;points=[[0,0.5],[1,0.5]];portConstraint=eastwest;whiteSpace=wrap;html=1;" parent="Sknnawx_UnGMBE0QyGvW-30" vertex="1">
          <mxGeometry y="104" width="160" height="26" as="geometry" />
        </mxCell>
        <mxCell id="Sknnawx_UnGMBE0QyGvW-41" value="StatusService" style="swimlane;fontStyle=1;align=center;verticalAlign=top;childLayout=stackLayout;horizontal=1;startSize=26;horizontalStack=0;resizeParent=1;resizeParentMax=0;resizeLast=0;collapsible=1;marginBottom=0;whiteSpace=wrap;html=1;" parent="1" vertex="1">
          <mxGeometry x="1436" y="815" width="160" height="104" as="geometry" />
        </mxCell>
        <mxCell id="Sknnawx_UnGMBE0QyGvW-49" value="+ Save(): void" style="text;strokeColor=none;fillColor=none;align=left;verticalAlign=top;spacingLeft=4;spacingRight=4;overflow=hidden;rotatable=0;points=[[0,0.5],[1,0.5]];portConstraint=eastwest;whiteSpace=wrap;html=1;" parent="Sknnawx_UnGMBE0QyGvW-41" vertex="1">
          <mxGeometry y="26" width="160" height="26" as="geometry" />
        </mxCell>
        <mxCell id="Sknnawx_UnGMBE0QyGvW-50" value="+ ShowProgress(): void" style="text;strokeColor=none;fillColor=none;align=left;verticalAlign=top;spacingLeft=4;spacingRight=4;overflow=hidden;rotatable=0;points=[[0,0.5],[1,0.5]];portConstraint=eastwest;whiteSpace=wrap;html=1;" parent="Sknnawx_UnGMBE0QyGvW-41" vertex="1">
          <mxGeometry y="52" width="160" height="26" as="geometry" />
        </mxCell>
        <mxCell id="Sknnawx_UnGMBE0QyGvW-51" value="+ ShowState(): void" style="text;strokeColor=none;fillColor=none;align=left;verticalAlign=top;spacingLeft=4;spacingRight=4;overflow=hidden;rotatable=0;points=[[0,0.5],[1,0.5]];portConstraint=eastwest;whiteSpace=wrap;html=1;" parent="Sknnawx_UnGMBE0QyGvW-41" vertex="1">
          <mxGeometry y="78" width="160" height="26" as="geometry" />
        </mxCell>
        <mxCell id="Sknnawx_UnGMBE0QyGvW-52" value="StatusModel" style="swimlane;fontStyle=1;align=center;verticalAlign=top;childLayout=stackLayout;horizontal=1;startSize=26;horizontalStack=0;resizeParent=1;resizeParentMax=0;resizeLast=0;collapsible=1;marginBottom=0;whiteSpace=wrap;html=1;" parent="1" vertex="1">
          <mxGeometry x="1849" y="740" width="160" height="182" as="geometry" />
        </mxCell>
        <mxCell id="Sknnawx_UnGMBE0QyGvW-53" value="+ name: String" style="text;strokeColor=none;fillColor=none;align=left;verticalAlign=top;spacingLeft=4;spacingRight=4;overflow=hidden;rotatable=0;points=[[0,0.5],[1,0.5]];portConstraint=eastwest;whiteSpace=wrap;html=1;" parent="Sknnawx_UnGMBE0QyGvW-52" vertex="1">
          <mxGeometry y="26" width="160" height="26" as="geometry" />
        </mxCell>
        <mxCell id="Sknnawx_UnGMBE0QyGvW-54" value="+ datetime: DateTime" style="text;strokeColor=none;fillColor=none;align=left;verticalAlign=top;spacingLeft=4;spacingRight=4;overflow=hidden;rotatable=0;points=[[0,0.5],[1,0.5]];portConstraint=eastwest;whiteSpace=wrap;html=1;" parent="Sknnawx_UnGMBE0QyGvW-52" vertex="1">
          <mxGeometry y="52" width="160" height="26" as="geometry" />
        </mxCell>
        <mxCell id="Sknnawx_UnGMBE0QyGvW-55" value="+ state: Bool" style="text;strokeColor=none;fillColor=none;align=left;verticalAlign=top;spacingLeft=4;spacingRight=4;overflow=hidden;rotatable=0;points=[[0,0.5],[1,0.5]];portConstraint=eastwest;whiteSpace=wrap;html=1;" parent="Sknnawx_UnGMBE0QyGvW-52" vertex="1">
          <mxGeometry y="78" width="160" height="26" as="geometry" />
        </mxCell>
        <mxCell id="Sknnawx_UnGMBE0QyGvW-56" value="+ tftc: Float" style="text;strokeColor=none;fillColor=none;align=left;verticalAlign=top;spacingLeft=4;spacingRight=4;overflow=hidden;rotatable=0;points=[[0,0.5],[1,0.5]];portConstraint=eastwest;whiteSpace=wrap;html=1;" parent="Sknnawx_UnGMBE0QyGvW-52" vertex="1">
          <mxGeometry y="104" width="160" height="26" as="geometry" />
        </mxCell>
        <mxCell id="Sknnawx_UnGMBE0QyGvW-57" value="+ tfs: Float" style="text;strokeColor=none;fillColor=none;align=left;verticalAlign=top;spacingLeft=4;spacingRight=4;overflow=hidden;rotatable=0;points=[[0,0.5],[1,0.5]];portConstraint=eastwest;whiteSpace=wrap;html=1;" parent="Sknnawx_UnGMBE0QyGvW-52" vertex="1">
          <mxGeometry y="130" width="160" height="26" as="geometry" />
        </mxCell>
        <mxCell id="Sknnawx_UnGMBE0QyGvW-58" value="+ progress: Progress" style="text;strokeColor=none;fillColor=none;align=left;verticalAlign=top;spacingLeft=4;spacingRight=4;overflow=hidden;rotatable=0;points=[[0,0.5],[1,0.5]];portConstraint=eastwest;whiteSpace=wrap;html=1;" parent="Sknnawx_UnGMBE0QyGvW-52" vertex="1">
          <mxGeometry y="156" width="160" height="26" as="geometry" />
        </mxCell>
        <mxCell id="Sknnawx_UnGMBE0QyGvW-63" value="LogService" style="swimlane;fontStyle=1;align=center;verticalAlign=top;childLayout=stackLayout;horizontal=1;startSize=26;horizontalStack=0;resizeParent=1;resizeParentMax=0;resizeLast=0;collapsible=1;marginBottom=0;whiteSpace=wrap;html=1;" parent="1" vertex="1">
          <mxGeometry x="1259" y="679" width="193" height="78" as="geometry" />
        </mxCell>
        <mxCell id="Sknnawx_UnGMBE0QyGvW-71" value="+ Write(): void" style="text;strokeColor=none;fillColor=none;align=left;verticalAlign=top;spacingLeft=4;spacingRight=4;overflow=hidden;rotatable=0;points=[[0,0.5],[1,0.5]];portConstraint=eastwest;whiteSpace=wrap;html=1;" parent="Sknnawx_UnGMBE0QyGvW-63" vertex="1">
          <mxGeometry y="26" width="193" height="26" as="geometry" />
        </mxCell>
        <mxCell id="Sknnawx_UnGMBE0QyGvW-72" value="+ Show(): void" style="text;strokeColor=none;fillColor=none;align=left;verticalAlign=top;spacingLeft=4;spacingRight=4;overflow=hidden;rotatable=0;points=[[0,0.5],[1,0.5]];portConstraint=eastwest;whiteSpace=wrap;html=1;" parent="Sknnawx_UnGMBE0QyGvW-63" vertex="1">
          <mxGeometry y="52" width="193" height="26" as="geometry" />
        </mxCell>
        <mxCell id="Sknnawx_UnGMBE0QyGvW-73" value="LogModel" style="swimlane;fontStyle=1;align=center;verticalAlign=top;childLayout=stackLayout;horizontal=1;startSize=26;horizontalStack=0;resizeParent=1;resizeParentMax=0;resizeLast=0;collapsible=1;marginBottom=0;whiteSpace=wrap;html=1;" parent="1" vertex="1">
          <mxGeometry x="2098" y="584" width="193" height="182" as="geometry" />
        </mxCell>
        <mxCell id="Sknnawx_UnGMBE0QyGvW-74" value="- datetime: DateTime" style="text;strokeColor=none;fillColor=none;align=left;verticalAlign=top;spacingLeft=4;spacingRight=4;overflow=hidden;rotatable=0;points=[[0,0.5],[1,0.5]];portConstraint=eastwest;whiteSpace=wrap;html=1;" parent="Sknnawx_UnGMBE0QyGvW-73" vertex="1">
          <mxGeometry y="26" width="193" height="26" as="geometry" />
        </mxCell>
        <mxCell id="Sknnawx_UnGMBE0QyGvW-75" value="- name: String" style="text;strokeColor=none;fillColor=none;align=left;verticalAlign=top;spacingLeft=4;spacingRight=4;overflow=hidden;rotatable=0;points=[[0,0.5],[1,0.5]];portConstraint=eastwest;whiteSpace=wrap;html=1;" parent="Sknnawx_UnGMBE0QyGvW-73" vertex="1">
          <mxGeometry y="52" width="193" height="26" as="geometry" />
        </mxCell>
        <mxCell id="Sknnawx_UnGMBE0QyGvW-76" value="- source: String" style="text;strokeColor=none;fillColor=none;align=left;verticalAlign=top;spacingLeft=4;spacingRight=4;overflow=hidden;rotatable=0;points=[[0,0.5],[1,0.5]];portConstraint=eastwest;whiteSpace=wrap;html=1;" parent="Sknnawx_UnGMBE0QyGvW-73" vertex="1">
          <mxGeometry y="78" width="193" height="26" as="geometry" />
        </mxCell>
        <mxCell id="Sknnawx_UnGMBE0QyGvW-77" value="- destination: String" style="text;strokeColor=none;fillColor=none;align=left;verticalAlign=top;spacingLeft=4;spacingRight=4;overflow=hidden;rotatable=0;points=[[0,0.5],[1,0.5]];portConstraint=eastwest;whiteSpace=wrap;html=1;" parent="Sknnawx_UnGMBE0QyGvW-73" vertex="1">
          <mxGeometry y="104" width="193" height="26" as="geometry" />
        </mxCell>
        <mxCell id="Sknnawx_UnGMBE0QyGvW-78" value="- size: Float" style="text;strokeColor=none;fillColor=none;align=left;verticalAlign=top;spacingLeft=4;spacingRight=4;overflow=hidden;rotatable=0;points=[[0,0.5],[1,0.5]];portConstraint=eastwest;whiteSpace=wrap;html=1;" parent="Sknnawx_UnGMBE0QyGvW-73" vertex="1">
          <mxGeometry y="130" width="193" height="26" as="geometry" />
        </mxCell>
        <mxCell id="Sknnawx_UnGMBE0QyGvW-79" value="- tt: Float" style="text;strokeColor=none;fillColor=none;align=left;verticalAlign=top;spacingLeft=4;spacingRight=4;overflow=hidden;rotatable=0;points=[[0,0.5],[1,0.5]];portConstraint=eastwest;whiteSpace=wrap;html=1;" parent="Sknnawx_UnGMBE0QyGvW-73" vertex="1">
          <mxGeometry y="156" width="193" height="26" as="geometry" />
        </mxCell>
        <mxCell id="Sknnawx_UnGMBE0QyGvW-83" value="ProgressService" style="swimlane;fontStyle=1;align=center;verticalAlign=top;childLayout=stackLayout;horizontal=1;startSize=26;horizontalStack=0;resizeParent=1;resizeParentMax=0;resizeLast=0;collapsible=1;marginBottom=0;whiteSpace=wrap;html=1;" parent="1" vertex="1">
          <mxGeometry x="1436" y="939" width="160" height="52" as="geometry" />
        </mxCell>
        <mxCell id="Sknnawx_UnGMBE0QyGvW-84" value="+ Update(): void" style="text;strokeColor=none;fillColor=none;align=left;verticalAlign=top;spacingLeft=4;spacingRight=4;overflow=hidden;rotatable=0;points=[[0,0.5],[1,0.5]];portConstraint=eastwest;whiteSpace=wrap;html=1;" parent="Sknnawx_UnGMBE0QyGvW-83" vertex="1">
          <mxGeometry y="26" width="160" height="26" as="geometry" />
        </mxCell>
        <mxCell id="Sknnawx_UnGMBE0QyGvW-89" value="ProgressModel" style="swimlane;fontStyle=1;align=center;verticalAlign=top;childLayout=stackLayout;horizontal=1;startSize=26;horizontalStack=0;resizeParent=1;resizeParentMax=0;resizeLast=0;collapsible=1;marginBottom=0;whiteSpace=wrap;html=1;" parent="1" vertex="1">
          <mxGeometry x="1848" y="967" width="160" height="130" as="geometry" />
        </mxCell>
        <mxCell id="Sknnawx_UnGMBE0QyGvW-90" value="- filesLeft: Int" style="text;strokeColor=none;fillColor=none;align=left;verticalAlign=top;spacingLeft=4;spacingRight=4;overflow=hidden;rotatable=0;points=[[0,0.5],[1,0.5]];portConstraint=eastwest;whiteSpace=wrap;html=1;" parent="Sknnawx_UnGMBE0QyGvW-89" vertex="1">
          <mxGeometry y="26" width="160" height="26" as="geometry" />
        </mxCell>
        <mxCell id="Sknnawx_UnGMBE0QyGvW-91" value="- tfsl: Float" style="text;strokeColor=none;fillColor=none;align=left;verticalAlign=top;spacingLeft=4;spacingRight=4;overflow=hidden;rotatable=0;points=[[0,0.5],[1,0.5]];portConstraint=eastwest;whiteSpace=wrap;html=1;" parent="Sknnawx_UnGMBE0QyGvW-89" vertex="1">
          <mxGeometry y="52" width="160" height="26" as="geometry" />
        </mxCell>
        <mxCell id="Sknnawx_UnGMBE0QyGvW-92" value="- source: String" style="text;strokeColor=none;fillColor=none;align=left;verticalAlign=top;spacingLeft=4;spacingRight=4;overflow=hidden;rotatable=0;points=[[0,0.5],[1,0.5]];portConstraint=eastwest;whiteSpace=wrap;html=1;" parent="Sknnawx_UnGMBE0QyGvW-89" vertex="1">
          <mxGeometry y="78" width="160" height="26" as="geometry" />
        </mxCell>
        <mxCell id="Sknnawx_UnGMBE0QyGvW-93" value="- destination: String" style="text;strokeColor=none;fillColor=none;align=left;verticalAlign=top;spacingLeft=4;spacingRight=4;overflow=hidden;rotatable=0;points=[[0,0.5],[1,0.5]];portConstraint=eastwest;whiteSpace=wrap;html=1;" parent="Sknnawx_UnGMBE0QyGvW-89" vertex="1">
          <mxGeometry y="104" width="160" height="26" as="geometry" />
        </mxCell>
        <mxCell id="Sknnawx_UnGMBE0QyGvW-101" value="&lt;font style=&quot;font-size: 18px;&quot;&gt;&lt;b&gt;Services&lt;/b&gt;&lt;/font&gt;" style="shape=umlFrame;whiteSpace=wrap;html=1;pointerEvents=0;width=130;height=39;" parent="1" vertex="1">
          <mxGeometry x="1115" y="214" width="598" height="904" as="geometry" />
        </mxCell>
        <mxCell id="Sknnawx_UnGMBE0QyGvW-102" value="&lt;b&gt;&lt;font style=&quot;font-size: 18px;&quot;&gt;Models&lt;/font&gt;&lt;/b&gt;" style="shape=umlFrame;whiteSpace=wrap;html=1;pointerEvents=0;width=130;height=39;" parent="1" vertex="1">
          <mxGeometry x="1713" y="214" width="598" height="904" as="geometry" />
        </mxCell>
        <mxCell id="Sknnawx_UnGMBE0QyGvW-103" value="&lt;font style=&quot;font-size: 18px;&quot;&gt;&lt;b&gt;ViewModels&lt;/b&gt;&lt;/font&gt;" style="shape=umlFrame;whiteSpace=wrap;html=1;pointerEvents=0;width=137;height=37;" parent="1" vertex="1">
          <mxGeometry x="1115" y="-45" width="1196" height="259" as="geometry" />
        </mxCell>
        <mxCell id="Sknnawx_UnGMBE0QyGvW-104" value="&lt;b&gt;CLIViewModel&lt;/b&gt;" style="swimlane;fontStyle=0;childLayout=stackLayout;horizontal=1;startSize=26;fillColor=none;horizontalStack=0;resizeParent=1;resizeParentMax=0;resizeLast=0;collapsible=1;marginBottom=0;whiteSpace=wrap;html=1;" parent="1" vertex="1">
          <mxGeometry x="1320" y="9" width="170" height="52" as="geometry" />
        </mxCell>
        <mxCell id="Sknnawx_UnGMBE0QyGvW-105" value="+ void(): void" style="text;strokeColor=none;fillColor=none;align=left;verticalAlign=top;spacingLeft=4;spacingRight=4;overflow=hidden;rotatable=0;points=[[0,0.5],[1,0.5]];portConstraint=eastwest;whiteSpace=wrap;html=1;" parent="Sknnawx_UnGMBE0QyGvW-104" vertex="1">
          <mxGeometry y="26" width="170" height="26" as="geometry" />
        </mxCell>
        <mxCell id="Sknnawx_UnGMBE0QyGvW-111" value="&lt;b&gt;TUIViewModel&lt;/b&gt;" style="swimlane;fontStyle=0;childLayout=stackLayout;horizontal=1;startSize=26;fillColor=none;horizontalStack=0;resizeParent=1;resizeParentMax=0;resizeLast=0;collapsible=1;marginBottom=0;whiteSpace=wrap;html=1;" parent="1" vertex="1">
          <mxGeometry x="1613" y="12" width="170" height="52" as="geometry" />
        </mxCell>
        <mxCell id="Sknnawx_UnGMBE0QyGvW-166" value="+ void(): void" style="text;strokeColor=none;fillColor=none;align=left;verticalAlign=top;spacingLeft=4;spacingRight=4;overflow=hidden;rotatable=0;points=[[0,0.5],[1,0.5]];portConstraint=eastwest;whiteSpace=wrap;html=1;" parent="Sknnawx_UnGMBE0QyGvW-111" vertex="1">
          <mxGeometry y="26" width="170" height="26" as="geometry" />
        </mxCell>
        <mxCell id="Sknnawx_UnGMBE0QyGvW-115" value="&lt;b&gt;GUIViewModel&lt;/b&gt;" style="swimlane;fontStyle=0;childLayout=stackLayout;horizontal=1;startSize=26;fillColor=none;horizontalStack=0;resizeParent=1;resizeParentMax=0;resizeLast=0;collapsible=1;marginBottom=0;whiteSpace=wrap;html=1;" parent="1" vertex="1">
          <mxGeometry x="1925" y="2" width="170" height="52" as="geometry" />
        </mxCell>
        <mxCell id="Sknnawx_UnGMBE0QyGvW-167" value="+ void(): void" style="text;strokeColor=none;fillColor=none;align=left;verticalAlign=top;spacingLeft=4;spacingRight=4;overflow=hidden;rotatable=0;points=[[0,0.5],[1,0.5]];portConstraint=eastwest;whiteSpace=wrap;html=1;" parent="Sknnawx_UnGMBE0QyGvW-115" vertex="1">
          <mxGeometry y="26" width="170" height="26" as="geometry" />
        </mxCell>
        <mxCell id="Sknnawx_UnGMBE0QyGvW-119" value="&lt;font style=&quot;font-size: 18px;&quot;&gt;&lt;b&gt;Views&lt;/b&gt;&lt;/font&gt;" style="shape=umlFrame;whiteSpace=wrap;html=1;pointerEvents=0;width=137;height=37;" parent="1" vertex="1">
          <mxGeometry x="1115" y="-304" width="1196" height="259" as="geometry" />
        </mxCell>
        <mxCell id="Sknnawx_UnGMBE0QyGvW-120" value="ConfigService" style="swimlane;fontStyle=1;align=center;verticalAlign=top;childLayout=stackLayout;horizontal=1;startSize=30;horizontalStack=0;resizeParent=1;resizeParentMax=0;resizeLast=0;collapsible=1;marginBottom=0;whiteSpace=wrap;html=1;" parent="1" vertex="1">
          <mxGeometry x="1171" y="521" width="192" height="134" as="geometry" />
        </mxCell>
        <mxCell id="Sknnawx_UnGMBE0QyGvW-121" value="+ SaveJob(): void" style="text;strokeColor=none;fillColor=none;align=left;verticalAlign=top;spacingLeft=4;spacingRight=4;overflow=hidden;rotatable=0;points=[[0,0.5],[1,0.5]];portConstraint=eastwest;whiteSpace=wrap;html=1;" parent="Sknnawx_UnGMBE0QyGvW-120" vertex="1">
          <mxGeometry y="30" width="192" height="26" as="geometry" />
        </mxCell>
        <mxCell id="Sknnawx_UnGMBE0QyGvW-124" value="+ DeleteJob(): void" style="text;strokeColor=none;fillColor=none;align=left;verticalAlign=top;spacingLeft=4;spacingRight=4;overflow=hidden;rotatable=0;points=[[0,0.5],[1,0.5]];portConstraint=eastwest;whiteSpace=wrap;html=1;" parent="Sknnawx_UnGMBE0QyGvW-120" vertex="1">
          <mxGeometry y="56" width="192" height="26" as="geometry" />
        </mxCell>
        <mxCell id="_LNHTOIFjy_BFucaJhGF-1" value="+ SetConfigDestination(): void" style="text;strokeColor=none;fillColor=none;align=left;verticalAlign=top;spacingLeft=4;spacingRight=4;overflow=hidden;rotatable=0;points=[[0,0.5],[1,0.5]];portConstraint=eastwest;whiteSpace=wrap;html=1;" parent="Sknnawx_UnGMBE0QyGvW-120" vertex="1">
          <mxGeometry y="82" width="192" height="26" as="geometry" />
        </mxCell>
        <mxCell id="_LNHTOIFjy_BFucaJhGF-6" value="+ SetLogDestination(): void" style="text;strokeColor=none;fillColor=none;align=left;verticalAlign=top;spacingLeft=4;spacingRight=4;overflow=hidden;rotatable=0;points=[[0,0.5],[1,0.5]];portConstraint=eastwest;whiteSpace=wrap;html=1;" parent="Sknnawx_UnGMBE0QyGvW-120" vertex="1">
          <mxGeometry y="108" width="192" height="26" as="geometry" />
        </mxCell>
        <mxCell id="Sknnawx_UnGMBE0QyGvW-126" value="&lt;b&gt;CLIView&lt;/b&gt;" style="swimlane;fontStyle=0;childLayout=stackLayout;horizontal=1;startSize=26;fillColor=none;horizontalStack=0;resizeParent=1;resizeParentMax=0;resizeLast=0;collapsible=1;marginBottom=0;whiteSpace=wrap;html=1;" parent="1" vertex="1">
          <mxGeometry x="1320" y="-252" width="170" height="52" as="geometry" />
        </mxCell>
        <mxCell id="Sknnawx_UnGMBE0QyGvW-169" value="+ Initialize(): void" style="text;strokeColor=none;fillColor=none;align=left;verticalAlign=top;spacingLeft=4;spacingRight=4;overflow=hidden;rotatable=0;points=[[0,0.5],[1,0.5]];portConstraint=eastwest;whiteSpace=wrap;html=1;" parent="Sknnawx_UnGMBE0QyGvW-126" vertex="1">
          <mxGeometry y="26" width="170" height="26" as="geometry" />
        </mxCell>
        <mxCell id="Sknnawx_UnGMBE0QyGvW-130" value="&lt;b&gt;TUIView&lt;/b&gt;" style="swimlane;fontStyle=0;childLayout=stackLayout;horizontal=1;startSize=26;fillColor=none;horizontalStack=0;resizeParent=1;resizeParentMax=0;resizeLast=0;collapsible=1;marginBottom=0;whiteSpace=wrap;html=1;" parent="1" vertex="1">
          <mxGeometry x="1614" y="-255" width="170" height="52" as="geometry" />
        </mxCell>
        <mxCell id="Sknnawx_UnGMBE0QyGvW-168" value="+ Initialize(): void" style="text;strokeColor=none;fillColor=none;align=left;verticalAlign=top;spacingLeft=4;spacingRight=4;overflow=hidden;rotatable=0;points=[[0,0.5],[1,0.5]];portConstraint=eastwest;whiteSpace=wrap;html=1;" parent="Sknnawx_UnGMBE0QyGvW-130" vertex="1">
          <mxGeometry y="26" width="170" height="26" as="geometry" />
        </mxCell>
        <mxCell id="Sknnawx_UnGMBE0QyGvW-138" value="&lt;b&gt;GUIView&lt;/b&gt;" style="swimlane;fontStyle=0;childLayout=stackLayout;horizontal=1;startSize=26;fillColor=none;horizontalStack=0;resizeParent=1;resizeParentMax=0;resizeLast=0;collapsible=1;marginBottom=0;whiteSpace=wrap;html=1;" parent="1" vertex="1">
          <mxGeometry x="1930" y="-250" width="170" height="52" as="geometry" />
        </mxCell>
        <mxCell id="Sknnawx_UnGMBE0QyGvW-139" value="+ Initialize(): void" style="text;strokeColor=none;fillColor=none;align=left;verticalAlign=top;spacingLeft=4;spacingRight=4;overflow=hidden;rotatable=0;points=[[0,0.5],[1,0.5]];portConstraint=eastwest;whiteSpace=wrap;html=1;" parent="Sknnawx_UnGMBE0QyGvW-138" vertex="1">
          <mxGeometry y="26" width="170" height="26" as="geometry" />
        </mxCell>
        <mxCell id="Sknnawx_UnGMBE0QyGvW-144" value="Use" style="endArrow=open;endSize=12;dashed=1;html=1;rounded=0;exitX=0.489;exitY=1.279;exitDx=0;exitDy=0;exitPerimeter=0;entryX=0.52;entryY=-0.03;entryDx=0;entryDy=0;entryPerimeter=0;" parent="1" source="Sknnawx_UnGMBE0QyGvW-169" target="Sknnawx_UnGMBE0QyGvW-104" edge="1">
          <mxGeometry width="160" relative="1" as="geometry">
            <mxPoint x="1409.25" y="-110.39999999999986" as="sourcePoint" />
            <mxPoint x="1216" y="84" as="targetPoint" />
          </mxGeometry>
        </mxCell>
        <mxCell id="Sknnawx_UnGMBE0QyGvW-145" value="Use" style="endArrow=open;endSize=12;dashed=1;html=1;rounded=0;exitX=0.473;exitY=1.19;exitDx=0;exitDy=0;exitPerimeter=0;entryX=0.481;entryY=0;entryDx=0;entryDy=0;entryPerimeter=0;" parent="1" source="Sknnawx_UnGMBE0QyGvW-168" target="Sknnawx_UnGMBE0QyGvW-111" edge="1">
          <mxGeometry width="160" relative="1" as="geometry">
            <mxPoint x="1696.4500000000003" y="-111.19000000000005" as="sourcePoint" />
            <mxPoint x="1692" y="10" as="targetPoint" />
          </mxGeometry>
        </mxCell>
        <mxCell id="Sknnawx_UnGMBE0QyGvW-146" value="Use" style="endArrow=open;endSize=12;dashed=1;html=1;rounded=0;exitX=0.477;exitY=1.244;exitDx=0;exitDy=0;exitPerimeter=0;entryX=0.501;entryY=-0.012;entryDx=0;entryDy=0;entryPerimeter=0;" parent="1" source="Sknnawx_UnGMBE0QyGvW-139" target="Sknnawx_UnGMBE0QyGvW-115" edge="1">
          <mxGeometry width="160" relative="1" as="geometry">
            <mxPoint x="2009.2199999999998" y="-110.40200000000004" as="sourcePoint" />
            <mxPoint x="1705" y="22" as="targetPoint" />
          </mxGeometry>
        </mxCell>
        <mxCell id="Sknnawx_UnGMBE0QyGvW-150" value="ConfigModel" style="swimlane;fontStyle=1;align=center;verticalAlign=top;childLayout=stackLayout;horizontal=1;startSize=30;horizontalStack=0;resizeParent=1;resizeParentMax=0;resizeLast=0;collapsible=1;marginBottom=0;whiteSpace=wrap;html=1;" parent="1" vertex="1">
          <mxGeometry x="1797" y="599" width="160" height="82" as="geometry" />
        </mxCell>
        <mxCell id="Sknnawx_UnGMBE0QyGvW-151" value="+ confDestintion: String" style="text;strokeColor=none;fillColor=none;align=left;verticalAlign=top;spacingLeft=4;spacingRight=4;overflow=hidden;rotatable=0;points=[[0,0.5],[1,0.5]];portConstraint=eastwest;whiteSpace=wrap;html=1;" parent="Sknnawx_UnGMBE0QyGvW-150" vertex="1">
          <mxGeometry y="30" width="160" height="26" as="geometry" />
        </mxCell>
        <mxCell id="Sknnawx_UnGMBE0QyGvW-152" value="+ logDestination: String" style="text;strokeColor=none;fillColor=none;align=left;verticalAlign=top;spacingLeft=4;spacingRight=4;overflow=hidden;rotatable=0;points=[[0,0.5],[1,0.5]];portConstraint=eastwest;whiteSpace=wrap;html=1;" parent="Sknnawx_UnGMBE0QyGvW-150" vertex="1">
          <mxGeometry y="56" width="160" height="26" as="geometry" />
        </mxCell>
        <mxCell id="Sknnawx_UnGMBE0QyGvW-153" value="" style="endArrow=open;endFill=1;endSize=12;html=1;rounded=0;exitX=0.502;exitY=1.046;exitDx=0;exitDy=0;exitPerimeter=0;entryX=0.243;entryY=1.002;entryDx=0;entryDy=0;entryPerimeter=0;" parent="1" source="Sknnawx_UnGMBE0QyGvW-105" target="Sknnawx_UnGMBE0QyGvW-103" edge="1">
          <mxGeometry width="160" relative="1" as="geometry">
            <mxPoint x="1407.5499999999997" y="150.9380000000001" as="sourcePoint" />
            <mxPoint x="1405" y="217" as="targetPoint" />
          </mxGeometry>
        </mxCell>
        <mxCell id="Sknnawx_UnGMBE0QyGvW-154" value="" style="endArrow=open;endFill=1;endSize=12;html=1;rounded=0;exitX=0.504;exitY=1.218;exitDx=0;exitDy=0;exitPerimeter=0;entryX=0.487;entryY=0.993;entryDx=0;entryDy=0;entryPerimeter=0;" parent="1" source="Sknnawx_UnGMBE0QyGvW-166" target="Sknnawx_UnGMBE0QyGvW-103" edge="1">
          <mxGeometry width="160" relative="1" as="geometry">
            <mxPoint x="1700.21" y="151.0519999999999" as="sourcePoint" />
            <mxPoint x="1416" y="225" as="targetPoint" />
          </mxGeometry>
        </mxCell>
        <mxCell id="Sknnawx_UnGMBE0QyGvW-155" value="" style="endArrow=open;endFill=1;endSize=12;html=1;rounded=0;exitX=0.488;exitY=1.151;exitDx=0;exitDy=0;exitPerimeter=0;entryX=0.747;entryY=0.993;entryDx=0;entryDy=0;entryPerimeter=0;" parent="1" source="Sknnawx_UnGMBE0QyGvW-167" target="Sknnawx_UnGMBE0QyGvW-103" edge="1">
          <mxGeometry width="160" relative="1" as="geometry">
            <mxPoint x="2011.3600000000001" y="142.586" as="sourcePoint" />
            <mxPoint x="1707" y="222" as="targetPoint" />
          </mxGeometry>
        </mxCell>
        <mxCell id="Sknnawx_UnGMBE0QyGvW-158" value="Use" style="endArrow=open;endSize=12;dashed=1;html=1;rounded=0;entryX=-0.012;entryY=-0.123;entryDx=0;entryDy=0;entryPerimeter=0;exitX=0.996;exitY=0.024;exitDx=0;exitDy=0;exitPerimeter=0;" parent="1" source="Sknnawx_UnGMBE0QyGvW-84" target="Sknnawx_UnGMBE0QyGvW-92" edge="1">
          <mxGeometry width="160" relative="1" as="geometry">
            <mxPoint x="1619" y="953" as="sourcePoint" />
            <mxPoint x="1779" y="953" as="targetPoint" />
          </mxGeometry>
        </mxCell>
        <mxCell id="Sknnawx_UnGMBE0QyGvW-159" value="Use" style="endArrow=open;endSize=12;dashed=1;html=1;rounded=0;entryX=-0.004;entryY=0.013;entryDx=0;entryDy=0;entryPerimeter=0;exitX=1.011;exitY=0.277;exitDx=0;exitDy=0;exitPerimeter=0;" parent="1" source="Sknnawx_UnGMBE0QyGvW-50" target="Sknnawx_UnGMBE0QyGvW-56" edge="1">
          <mxGeometry width="160" relative="1" as="geometry">
            <mxPoint x="1605" y="976" as="sourcePoint" />
            <mxPoint x="1856" y="1052" as="targetPoint" />
          </mxGeometry>
        </mxCell>
        <mxCell id="Sknnawx_UnGMBE0QyGvW-160" value="Use" style="endArrow=open;endSize=12;dashed=1;html=1;rounded=0;entryX=-0.008;entryY=0.322;entryDx=0;entryDy=0;entryPerimeter=0;" parent="1" source="Sknnawx_UnGMBE0QyGvW-72" target="Sknnawx_UnGMBE0QyGvW-78" edge="1">
          <mxGeometry width="160" relative="1" as="geometry">
            <mxPoint x="1490" y="705" as="sourcePoint" />
            <mxPoint x="1740" y="698" as="targetPoint" />
          </mxGeometry>
        </mxCell>
        <mxCell id="Sknnawx_UnGMBE0QyGvW-161" value="Use" style="endArrow=open;endSize=12;dashed=1;html=1;rounded=0;entryX=-0.012;entryY=0.333;entryDx=0;entryDy=0;entryPerimeter=0;exitX=1.023;exitY=0.281;exitDx=0;exitDy=0;exitPerimeter=0;" parent="1" source="Sknnawx_UnGMBE0QyGvW-121" target="Sknnawx_UnGMBE0QyGvW-151" edge="1">
          <mxGeometry width="160" relative="1" as="geometry">
            <mxPoint x="1462" y="751" as="sourcePoint" />
            <mxPoint x="2106" y="732" as="targetPoint" />
          </mxGeometry>
        </mxCell>
        <mxCell id="Sknnawx_UnGMBE0QyGvW-162" value="Use" style="endArrow=open;endSize=12;dashed=1;html=1;rounded=0;exitX=1.006;exitY=0.287;exitDx=0;exitDy=0;exitPerimeter=0;entryX=-0.031;entryY=0.01;entryDx=0;entryDy=0;entryPerimeter=0;" parent="1" source="Sknnawx_UnGMBE0QyGvW-27" target="Sknnawx_UnGMBE0QyGvW-33" edge="1">
          <mxGeometry width="160" relative="1" as="geometry">
            <mxPoint x="1377" y="593" as="sourcePoint" />
            <mxPoint x="1858" y="512" as="targetPoint" />
          </mxGeometry>
        </mxCell>
        <mxCell id="Sknnawx_UnGMBE0QyGvW-163" value="Use" style="endArrow=open;endSize=12;dashed=1;html=1;rounded=0;exitX=1.016;exitY=0.473;exitDx=0;exitDy=0;exitPerimeter=0;entryX=-0.01;entryY=0.724;entryDx=0;entryDy=0;entryPerimeter=0;" parent="1" source="Sknnawx_UnGMBE0QyGvW-16" edge="1">
          <mxGeometry width="160" relative="1" as="geometry">
            <mxPoint x="1613" y="503" as="sourcePoint" />
            <mxPoint x="1855.3000000000002" y="346.82400000000007" as="targetPoint" />
          </mxGeometry>
        </mxCell>
        <mxCell id="Sknnawx_UnGMBE0QyGvW-165" value="" style="endArrow=diamondThin;endFill=0;endSize=24;html=1;rounded=0;entryX=0.493;entryY=1.084;entryDx=0;entryDy=0;entryPerimeter=0;exitX=0.506;exitY=-0.004;exitDx=0;exitDy=0;exitPerimeter=0;" parent="1" source="Sknnawx_UnGMBE0QyGvW-89" target="Sknnawx_UnGMBE0QyGvW-58" edge="1">
          <mxGeometry width="160" relative="1" as="geometry">
            <mxPoint x="1630" y="957" as="sourcePoint" />
            <mxPoint x="1790" y="957" as="targetPoint" />
          </mxGeometry>
        </mxCell>
        <mxCell id="Sknnawx_UnGMBE0QyGvW-170" value="&lt;font style=&quot;font-size: 24px;&quot;&gt;New (with MVVM &amp;amp; SOLID architecture)&lt;/font&gt;" style="text;align=center;fontStyle=1;verticalAlign=middle;spacingLeft=3;spacingRight=3;strokeColor=none;rotatable=0;points=[[0,0.5],[1,0.5]];portConstraint=eastwest;html=1;" parent="1" vertex="1">
          <mxGeometry x="1482" y="-364" width="488" height="26" as="geometry" />
        </mxCell>
        <mxCell id="Sknnawx_UnGMBE0QyGvW-172" value="frame" style="shape=umlFrame;whiteSpace=wrap;html=1;pointerEvents=0;" parent="1" vertex="1">
          <mxGeometry x="2392" y="-286" width="916" height="643" as="geometry" />
        </mxCell>
        <mxCell id="Sknnawx_UnGMBE0QyGvW-173" value="&lt;font style=&quot;font-size: 24px;&quot;&gt;Old&lt;/font&gt;" style="text;align=center;fontStyle=1;verticalAlign=middle;spacingLeft=3;spacingRight=3;strokeColor=none;rotatable=0;points=[[0,0.5],[1,0.5]];portConstraint=eastwest;html=1;" parent="1" vertex="1">
          <mxGeometry x="2610" y="-326" width="488" height="26" as="geometry" />
        </mxCell>
      </root>
    </mxGraphModel>
  </diagram>
  <diagram id="ciMnFPPDbIXbQqtRuiRL" name="Activities">
    <mxGraphModel dx="521" dy="661" grid="1" gridSize="10" guides="1" tooltips="1" connect="1" arrows="1" fold="1" page="1" pageScale="1" pageWidth="827" pageHeight="1169" math="0" shadow="0">
      <root>
        <mxCell id="0" />
        <mxCell id="1" parent="0" />
        <mxCell id="o1P0Xv3a8H-fOkeVIDu6-1" value="" style="ellipse;html=1;shape=startState;fillColor=#000000;strokeColor=#ff0000;" parent="1" vertex="1">
          <mxGeometry x="384" y="100" width="30" height="30" as="geometry" />
        </mxCell>
        <mxCell id="o1P0Xv3a8H-fOkeVIDu6-2" value="" style="edgeStyle=orthogonalEdgeStyle;html=1;verticalAlign=bottom;endArrow=open;endSize=8;strokeColor=#ff0000;rounded=0;entryX=0.484;entryY=-0.035;entryDx=0;entryDy=0;entryPerimeter=0;" parent="1" source="o1P0Xv3a8H-fOkeVIDu6-1" target="o1P0Xv3a8H-fOkeVIDu6-3" edge="1">
          <mxGeometry relative="1" as="geometry">
            <mxPoint x="403" y="190" as="targetPoint" />
            <Array as="points">
              <mxPoint x="399" y="160" />
              <mxPoint x="400" y="160" />
              <mxPoint x="400" y="190" />
              <mxPoint x="401" y="190" />
            </Array>
          </mxGeometry>
        </mxCell>
        <mxCell id="o1P0Xv3a8H-fOkeVIDu6-3" value="Try to retreive config file" style="rounded=1;whiteSpace=wrap;html=1;arcSize=40;fontColor=#000000;fillColor=#ffffc0;strokeColor=#ff0000;" parent="1" vertex="1">
          <mxGeometry x="333" y="200" width="140" height="40" as="geometry" />
        </mxCell>
        <mxCell id="o1P0Xv3a8H-fOkeVIDu6-4" value="" style="edgeStyle=orthogonalEdgeStyle;html=1;verticalAlign=bottom;endArrow=open;endSize=8;strokeColor=#ff0000;rounded=0;entryX=0.5;entryY=0;entryDx=0;entryDy=0;" parent="1" source="o1P0Xv3a8H-fOkeVIDu6-3" target="o1P0Xv3a8H-fOkeVIDu6-5" edge="1">
          <mxGeometry relative="1" as="geometry">
            <mxPoint x="414" y="300" as="targetPoint" />
            <Array as="points">
              <mxPoint x="400" y="260" />
              <mxPoint x="400" y="260" />
            </Array>
          </mxGeometry>
        </mxCell>
        <mxCell id="o1P0Xv3a8H-fOkeVIDu6-5" value="if config file exists" style="rhombus;whiteSpace=wrap;html=1;fontColor=#000000;fillColor=#ffffc0;strokeColor=#ff0000;" parent="1" vertex="1">
          <mxGeometry x="340" y="300" width="120" height="70" as="geometry" />
        </mxCell>
        <mxCell id="o1P0Xv3a8H-fOkeVIDu6-6" value="no" style="edgeStyle=orthogonalEdgeStyle;html=1;align=left;verticalAlign=bottom;endArrow=open;endSize=8;strokeColor=#ff0000;rounded=0;entryX=0;entryY=0.5;entryDx=0;entryDy=0;" parent="1" source="o1P0Xv3a8H-fOkeVIDu6-5" target="o1P0Xv3a8H-fOkeVIDu6-8" edge="1">
          <mxGeometry x="-1" relative="1" as="geometry">
            <mxPoint x="570" y="335" as="targetPoint" />
            <Array as="points">
              <mxPoint x="620" y="335" />
              <mxPoint x="620" y="340" />
            </Array>
          </mxGeometry>
        </mxCell>
        <mxCell id="o1P0Xv3a8H-fOkeVIDu6-7" value="yes" style="edgeStyle=orthogonalEdgeStyle;html=1;align=left;verticalAlign=top;endArrow=open;endSize=8;strokeColor=#ff0000;rounded=0;" parent="1" source="o1P0Xv3a8H-fOkeVIDu6-5" edge="1">
          <mxGeometry x="-1" relative="1" as="geometry">
            <mxPoint x="400" y="410" as="targetPoint" />
            <Array as="points">
              <mxPoint x="400" y="390" />
              <mxPoint x="400" y="390" />
            </Array>
          </mxGeometry>
        </mxCell>
        <mxCell id="o1P0Xv3a8H-fOkeVIDu6-8" value="Show Job Management Prompt &amp;amp; ask for input" style="rounded=1;whiteSpace=wrap;html=1;arcSize=40;fontColor=#000000;fillColor=#ffffc0;strokeColor=#ff0000;" parent="1" vertex="1">
          <mxGeometry x="637" y="320" width="130" height="40" as="geometry" />
        </mxCell>
        <mxCell id="o1P0Xv3a8H-fOkeVIDu6-9" value="" style="edgeStyle=orthogonalEdgeStyle;html=1;verticalAlign=bottom;endArrow=open;endSize=8;strokeColor=#ff0000;rounded=0;" parent="1" source="o1P0Xv3a8H-fOkeVIDu6-8" edge="1">
          <mxGeometry relative="1" as="geometry">
            <mxPoint x="702" y="420" as="targetPoint" />
          </mxGeometry>
        </mxCell>
        <mxCell id="o1P0Xv3a8H-fOkeVIDu6-10" value="Read config file" style="rounded=1;whiteSpace=wrap;html=1;arcSize=40;fontColor=#000000;fillColor=#ffffc0;strokeColor=#ff0000;" parent="1" vertex="1">
          <mxGeometry x="340" y="410" width="120" height="40" as="geometry" />
        </mxCell>
        <mxCell id="o1P0Xv3a8H-fOkeVIDu6-11" value="" style="edgeStyle=orthogonalEdgeStyle;html=1;verticalAlign=bottom;endArrow=open;endSize=8;strokeColor=#ff0000;rounded=0;" parent="1" source="o1P0Xv3a8H-fOkeVIDu6-10" edge="1">
          <mxGeometry relative="1" as="geometry">
            <mxPoint x="400" y="510" as="targetPoint" />
          </mxGeometry>
        </mxCell>
        <mxCell id="o1P0Xv3a8H-fOkeVIDu6-12" value="Retreive Jobs" style="rounded=1;whiteSpace=wrap;html=1;arcSize=40;fontColor=#000000;fillColor=#ffffc0;strokeColor=#ff0000;" parent="1" vertex="1">
          <mxGeometry x="339" y="510" width="120" height="40" as="geometry" />
        </mxCell>
        <mxCell id="o1P0Xv3a8H-fOkeVIDu6-13" value="" style="edgeStyle=orthogonalEdgeStyle;html=1;verticalAlign=bottom;endArrow=open;endSize=8;strokeColor=#ff0000;rounded=0;" parent="1" source="o1P0Xv3a8H-fOkeVIDu6-12" edge="1">
          <mxGeometry relative="1" as="geometry">
            <mxPoint x="399" y="610" as="targetPoint" />
          </mxGeometry>
        </mxCell>
        <mxCell id="o1P0Xv3a8H-fOkeVIDu6-17" value="If Job source &amp;amp; destination exists" style="rhombus;whiteSpace=wrap;html=1;fontColor=#000000;fillColor=#ffffc0;strokeColor=#ff0000;" parent="1" vertex="1">
          <mxGeometry x="335" y="610" width="130" height="80" as="geometry" />
        </mxCell>
        <mxCell id="o1P0Xv3a8H-fOkeVIDu6-18" value="no" style="edgeStyle=orthogonalEdgeStyle;html=1;align=left;verticalAlign=bottom;endArrow=open;endSize=8;strokeColor=#ff0000;rounded=0;entryX=0;entryY=0.25;entryDx=0;entryDy=0;" parent="1" source="o1P0Xv3a8H-fOkeVIDu6-17" target="o1P0Xv3a8H-fOkeVIDu6-30" edge="1">
          <mxGeometry x="-1" relative="1" as="geometry">
            <mxPoint x="540" y="640" as="targetPoint" />
            <Array as="points" />
          </mxGeometry>
        </mxCell>
        <mxCell id="o1P0Xv3a8H-fOkeVIDu6-19" value="yes" style="edgeStyle=orthogonalEdgeStyle;html=1;align=left;verticalAlign=top;endArrow=open;endSize=8;strokeColor=#ff0000;rounded=0;" parent="1" source="o1P0Xv3a8H-fOkeVIDu6-17" edge="1">
          <mxGeometry x="-1" relative="1" as="geometry">
            <mxPoint x="400" y="730" as="targetPoint" />
          </mxGeometry>
        </mxCell>
        <mxCell id="o1P0Xv3a8H-fOkeVIDu6-20" value="choice:&lt;div&gt;add&lt;/div&gt;&lt;div&gt;remove&lt;/div&gt;&lt;div&gt;edit&lt;/div&gt;" style="rhombus;whiteSpace=wrap;html=1;fontColor=#000000;fillColor=#ffffc0;strokeColor=#ff0000;" parent="1" vertex="1">
          <mxGeometry x="662" y="420" width="80" height="100" as="geometry" />
        </mxCell>
        <mxCell id="o1P0Xv3a8H-fOkeVIDu6-21" value="remove" style="edgeStyle=orthogonalEdgeStyle;html=1;align=left;verticalAlign=bottom;endArrow=open;endSize=8;strokeColor=#ff0000;rounded=0;" parent="1" source="o1P0Xv3a8H-fOkeVIDu6-20" edge="1">
          <mxGeometry x="-1" relative="1" as="geometry">
            <mxPoint x="827" y="470" as="targetPoint" />
          </mxGeometry>
        </mxCell>
        <mxCell id="o1P0Xv3a8H-fOkeVIDu6-22" value="add" style="edgeStyle=orthogonalEdgeStyle;html=1;align=left;verticalAlign=top;endArrow=open;endSize=8;strokeColor=#ff0000;rounded=0;entryX=0.5;entryY=0;entryDx=0;entryDy=0;" parent="1" source="o1P0Xv3a8H-fOkeVIDu6-20" target="o1P0Xv3a8H-fOkeVIDu6-24" edge="1">
          <mxGeometry x="-1" relative="1" as="geometry">
            <mxPoint x="702" y="580" as="targetPoint" />
          </mxGeometry>
        </mxCell>
        <mxCell id="o1P0Xv3a8H-fOkeVIDu6-23" value="edit" style="edgeStyle=orthogonalEdgeStyle;html=1;align=left;verticalAlign=top;endArrow=open;endSize=8;strokeColor=#ff0000;rounded=0;exitX=0;exitY=0.5;exitDx=0;exitDy=0;" parent="1" source="o1P0Xv3a8H-fOkeVIDu6-20" edge="1">
          <mxGeometry x="-0.6841" y="-32" relative="1" as="geometry">
            <mxPoint x="647" y="520" as="targetPoint" />
            <mxPoint x="712" y="530" as="sourcePoint" />
            <Array as="points">
              <mxPoint x="647" y="470" />
            </Array>
            <mxPoint x="22" y="-30" as="offset" />
          </mxGeometry>
        </mxCell>
        <mxCell id="o1P0Xv3a8H-fOkeVIDu6-24" value="Show add prompt" style="rounded=1;whiteSpace=wrap;html=1;arcSize=40;fontColor=#000000;fillColor=#ffffc0;strokeColor=#ff0000;" parent="1" vertex="1">
          <mxGeometry x="720" y="580" width="120" height="40" as="geometry" />
        </mxCell>
        <mxCell id="o1P0Xv3a8H-fOkeVIDu6-25" value="" style="edgeStyle=orthogonalEdgeStyle;html=1;verticalAlign=bottom;endArrow=open;endSize=8;strokeColor=#FF0000;rounded=0;exitX=0.5;exitY=1;exitDx=0;exitDy=0;entryX=0.5;entryY=0;entryDx=0;entryDy=0;" parent="1" source="o1P0Xv3a8H-fOkeVIDu6-26" target="o1P0Xv3a8H-fOkeVIDu6-30" edge="1">
          <mxGeometry relative="1" as="geometry">
            <mxPoint x="620" y="580" as="targetPoint" />
          </mxGeometry>
        </mxCell>
        <mxCell id="o1P0Xv3a8H-fOkeVIDu6-26" value="Show edit prompt &amp;amp; ask for input" style="rounded=1;whiteSpace=wrap;html=1;arcSize=40;fontColor=#000000;fillColor=#ffffc0;strokeColor=#ff0000;" parent="1" vertex="1">
          <mxGeometry x="560" y="520" width="120" height="40" as="geometry" />
        </mxCell>
        <mxCell id="o1P0Xv3a8H-fOkeVIDu6-27" value="Show remove prompt" style="rounded=1;whiteSpace=wrap;html=1;arcSize=40;fontColor=#000000;fillColor=#ffffc0;strokeColor=#ff0000;" parent="1" vertex="1">
          <mxGeometry x="827" y="450" width="120" height="40" as="geometry" />
        </mxCell>
        <mxCell id="o1P0Xv3a8H-fOkeVIDu6-39" style="edgeStyle=orthogonalEdgeStyle;rounded=0;orthogonalLoop=1;jettySize=auto;html=1;exitX=0.5;exitY=1;exitDx=0;exitDy=0;entryX=0.5;entryY=0;entryDx=0;entryDy=0;strokeColor=light-dark(#FF0000,#FF0000);" parent="1" source="o1P0Xv3a8H-fOkeVIDu6-28" target="o1P0Xv3a8H-fOkeVIDu6-36" edge="1">
          <mxGeometry relative="1" as="geometry" />
        </mxCell>
        <mxCell id="o1P0Xv3a8H-fOkeVIDu6-28" value="Show choosen Job add prompt &amp;amp; ask for input" style="rounded=1;whiteSpace=wrap;html=1;arcSize=40;fontColor=#000000;fillColor=#ffffc0;strokeColor=#ff0000;" parent="1" vertex="1">
          <mxGeometry x="720" y="640" width="120" height="40" as="geometry" />
        </mxCell>
        <mxCell id="o1P0Xv3a8H-fOkeVIDu6-38" style="edgeStyle=orthogonalEdgeStyle;rounded=0;orthogonalLoop=1;jettySize=auto;html=1;exitX=0.5;exitY=1;exitDx=0;exitDy=0;entryX=0.5;entryY=0;entryDx=0;entryDy=0;strokeColor=light-dark(#FF0000,#FF0000);" parent="1" source="o1P0Xv3a8H-fOkeVIDu6-30" target="o1P0Xv3a8H-fOkeVIDu6-36" edge="1">
          <mxGeometry relative="1" as="geometry" />
        </mxCell>
        <mxCell id="o1P0Xv3a8H-fOkeVIDu6-30" value="Show choosen Job edit prompt &amp;amp; ask for input" style="rounded=1;whiteSpace=wrap;html=1;arcSize=40;fontColor=#000000;fillColor=#ffffc0;strokeColor=#ff0000;" parent="1" vertex="1">
          <mxGeometry x="570" y="640" width="120" height="40" as="geometry" />
        </mxCell>
        <mxCell id="o1P0Xv3a8H-fOkeVIDu6-32" value="" style="edgeStyle=orthogonalEdgeStyle;html=1;verticalAlign=bottom;endArrow=open;endSize=8;strokeColor=#ff0000;rounded=0;exitX=0.5;exitY=1;exitDx=0;exitDy=0;entryX=0.5;entryY=0;entryDx=0;entryDy=0;" parent="1" source="o1P0Xv3a8H-fOkeVIDu6-24" target="o1P0Xv3a8H-fOkeVIDu6-28" edge="1">
          <mxGeometry relative="1" as="geometry">
            <mxPoint x="777" y="820" as="targetPoint" />
            <mxPoint x="767" y="740" as="sourcePoint" />
          </mxGeometry>
        </mxCell>
        <mxCell id="o1P0Xv3a8H-fOkeVIDu6-40" style="edgeStyle=orthogonalEdgeStyle;rounded=0;orthogonalLoop=1;jettySize=auto;html=1;entryX=0.5;entryY=0;entryDx=0;entryDy=0;strokeColor=light-dark(#FF0000,#FF0000);" parent="1" source="o1P0Xv3a8H-fOkeVIDu6-33" target="o1P0Xv3a8H-fOkeVIDu6-36" edge="1">
          <mxGeometry relative="1" as="geometry">
            <Array as="points">
              <mxPoint x="887" y="655" />
              <mxPoint x="860" y="655" />
              <mxPoint x="860" y="710" />
              <mxPoint x="827" y="710" />
            </Array>
          </mxGeometry>
        </mxCell>
        <mxCell id="o1P0Xv3a8H-fOkeVIDu6-33" value="Show choosen Job remove prompt &amp;amp; ask for input" style="rounded=1;whiteSpace=wrap;html=1;arcSize=40;fontColor=#000000;fillColor=#ffffc0;strokeColor=#ff0000;" parent="1" vertex="1">
          <mxGeometry x="827" y="520" width="120" height="40" as="geometry" />
        </mxCell>
        <mxCell id="o1P0Xv3a8H-fOkeVIDu6-34" value="" style="edgeStyle=orthogonalEdgeStyle;html=1;verticalAlign=bottom;endArrow=open;endSize=8;strokeColor=#ff0000;rounded=0;exitX=0.5;exitY=1;exitDx=0;exitDy=0;entryX=0.5;entryY=0;entryDx=0;entryDy=0;" parent="1" source="o1P0Xv3a8H-fOkeVIDu6-27" target="o1P0Xv3a8H-fOkeVIDu6-33" edge="1">
          <mxGeometry relative="1" as="geometry">
            <mxPoint x="810" y="570" as="targetPoint" />
            <mxPoint x="810" y="550" as="sourcePoint" />
          </mxGeometry>
        </mxCell>
        <mxCell id="o1P0Xv3a8H-fOkeVIDu6-36" value="Create/Modify the config file" style="rounded=1;whiteSpace=wrap;html=1;arcSize=40;fontColor=#000000;fillColor=#ffffc0;strokeColor=#ff0000;" parent="1" vertex="1">
          <mxGeometry x="767" y="750" width="120" height="40" as="geometry" />
        </mxCell>
        <mxCell id="o1P0Xv3a8H-fOkeVIDu6-37" value="" style="edgeStyle=orthogonalEdgeStyle;html=1;verticalAlign=bottom;endArrow=open;endSize=8;strokeColor=#ff0000;rounded=0;entryX=0.5;entryY=0;entryDx=0;entryDy=0;" parent="1" source="o1P0Xv3a8H-fOkeVIDu6-36" target="o1P0Xv3a8H-fOkeVIDu6-5" edge="1">
          <mxGeometry relative="1" as="geometry">
            <mxPoint x="827" y="850" as="targetPoint" />
            <Array as="points">
              <mxPoint x="980" y="770" />
              <mxPoint x="980" y="290" />
              <mxPoint x="400" y="290" />
            </Array>
          </mxGeometry>
        </mxCell>
        <mxCell id="o1P0Xv3a8H-fOkeVIDu6-41" value="If Job type == complete" style="rhombus;whiteSpace=wrap;html=1;fontColor=#000000;fillColor=#ffffc0;strokeColor=#ff0000;" parent="1" vertex="1">
          <mxGeometry x="319.5" y="730" width="161" height="80" as="geometry" />
        </mxCell>
        <mxCell id="o1P0Xv3a8H-fOkeVIDu6-42" value="no" style="edgeStyle=orthogonalEdgeStyle;html=1;align=left;verticalAlign=bottom;endArrow=open;endSize=8;strokeColor=#FF0000;rounded=0;" parent="1" source="o1P0Xv3a8H-fOkeVIDu6-41" edge="1">
          <mxGeometry x="-1" relative="1" as="geometry">
            <mxPoint x="550" y="770" as="targetPoint" />
            <Array as="points">
              <mxPoint x="540" y="770" />
            </Array>
          </mxGeometry>
        </mxCell>
        <mxCell id="o1P0Xv3a8H-fOkeVIDu6-43" value="yes" style="edgeStyle=orthogonalEdgeStyle;html=1;align=left;verticalAlign=top;endArrow=open;endSize=8;strokeColor=#ff0000;rounded=0;" parent="1" source="o1P0Xv3a8H-fOkeVIDu6-41" edge="1">
          <mxGeometry x="-1" relative="1" as="geometry">
            <mxPoint x="400" y="840" as="targetPoint" />
          </mxGeometry>
        </mxCell>
        <mxCell id="o1P0Xv3a8H-fOkeVIDu6-44" value="Copy all Job source files to destination" style="rounded=1;whiteSpace=wrap;html=1;arcSize=40;fontColor=#000000;fillColor=#ffffc0;strokeColor=#ff0000;" parent="1" vertex="1">
          <mxGeometry x="339" y="840" width="120" height="40" as="geometry" />
        </mxCell>
        <mxCell id="o1P0Xv3a8H-fOkeVIDu6-45" value="" style="edgeStyle=orthogonalEdgeStyle;html=1;verticalAlign=bottom;endArrow=open;endSize=8;strokeColor=#ff0000;rounded=0;entryX=0.5;entryY=0;entryDx=0;entryDy=0;" parent="1" source="o1P0Xv3a8H-fOkeVIDu6-44" target="o1P0Xv3a8H-fOkeVIDu6-48" edge="1">
          <mxGeometry relative="1" as="geometry">
            <mxPoint x="399" y="920" as="targetPoint" />
          </mxGeometry>
        </mxCell>
        <mxCell id="o1P0Xv3a8H-fOkeVIDu6-46" value="differential" style="text;align=center;fontStyle=1;verticalAlign=middle;spacingLeft=3;spacingRight=3;strokeColor=none;rotatable=0;points=[[0,0.5],[1,0.5]];portConstraint=eastwest;html=1;" parent="1" vertex="1">
          <mxGeometry x="530" y="724" width="80" height="26" as="geometry" />
        </mxCell>
        <mxCell id="ijTYz2lc2rOnJUmNkAm5-1" style="edgeStyle=orthogonalEdgeStyle;rounded=0;orthogonalLoop=1;jettySize=auto;html=1;entryX=0.5;entryY=0;entryDx=0;entryDy=0;strokeColor=light-dark(#FF0000,#FF0000);" parent="1" source="o1P0Xv3a8H-fOkeVIDu6-47" target="o1P0Xv3a8H-fOkeVIDu6-48" edge="1">
          <mxGeometry relative="1" as="geometry">
            <Array as="points">
              <mxPoint x="615" y="860" />
              <mxPoint x="540" y="860" />
            </Array>
          </mxGeometry>
        </mxCell>
        <mxCell id="o1P0Xv3a8H-fOkeVIDu6-47" value="Copy all modified Job source files to destination" style="rounded=1;whiteSpace=wrap;html=1;arcSize=40;fontColor=#000000;fillColor=#ffffc0;strokeColor=#ff0000;" parent="1" vertex="1">
          <mxGeometry x="550" y="750" width="130" height="50" as="geometry" />
        </mxCell>
        <mxCell id="o1P0Xv3a8H-fOkeVIDu6-48" value="Retreive files infos:&amp;nbsp;&lt;div&gt;- tfsl&lt;/div&gt;&lt;div&gt;- tftc&lt;/div&gt;&lt;div&gt;- tfs&lt;/div&gt;&lt;div&gt;- tt&lt;/div&gt;&lt;div&gt;- ..&lt;/div&gt;" style="rounded=1;whiteSpace=wrap;html=1;arcSize=40;fontColor=#000000;fillColor=#ffffc0;strokeColor=#ff0000;" parent="1" vertex="1">
          <mxGeometry x="470" y="910" width="140" height="110" as="geometry" />
        </mxCell>
        <mxCell id="o1P0Xv3a8H-fOkeVIDu6-49" value="" style="edgeStyle=orthogonalEdgeStyle;html=1;verticalAlign=bottom;endArrow=open;endSize=8;strokeColor=#ff0000;rounded=0;" parent="1" source="o1P0Xv3a8H-fOkeVIDu6-48" edge="1">
          <mxGeometry relative="1" as="geometry">
            <mxPoint x="540" y="1050" as="targetPoint" />
          </mxGeometry>
        </mxCell>
        <mxCell id="ijTYz2lc2rOnJUmNkAm5-2" value="Update Progress &amp;amp; Status" style="rounded=1;whiteSpace=wrap;html=1;arcSize=40;fontColor=#000000;fillColor=#ffffc0;strokeColor=#ff0000;" parent="1" vertex="1">
          <mxGeometry x="461.5" y="1050" width="157" height="40" as="geometry" />
        </mxCell>
        <mxCell id="ijTYz2lc2rOnJUmNkAm5-3" value="" style="edgeStyle=orthogonalEdgeStyle;html=1;verticalAlign=bottom;endArrow=open;endSize=8;strokeColor=#ff0000;rounded=0;" parent="1" source="ijTYz2lc2rOnJUmNkAm5-2" edge="1">
          <mxGeometry relative="1" as="geometry">
            <mxPoint x="540" y="1130" as="targetPoint" />
          </mxGeometry>
        </mxCell>
        <mxCell id="ijTYz2lc2rOnJUmNkAm5-4" value="Write to log file" style="rounded=1;whiteSpace=wrap;html=1;arcSize=40;fontColor=#000000;fillColor=#ffffc0;strokeColor=#ff0000;" parent="1" vertex="1">
          <mxGeometry x="480" y="1130" width="120" height="40" as="geometry" />
        </mxCell>
        <mxCell id="ijTYz2lc2rOnJUmNkAm5-5" value="" style="edgeStyle=orthogonalEdgeStyle;html=1;verticalAlign=bottom;endArrow=open;endSize=8;strokeColor=#ff0000;rounded=0;entryX=0;entryY=0.5;entryDx=0;entryDy=0;" parent="1" source="ijTYz2lc2rOnJUmNkAm5-4" target="o1P0Xv3a8H-fOkeVIDu6-41" edge="1">
          <mxGeometry relative="1" as="geometry">
            <mxPoint x="540" y="1230" as="targetPoint" />
            <Array as="points">
              <mxPoint x="290" y="1150" />
              <mxPoint x="290" y="770" />
            </Array>
          </mxGeometry>
        </mxCell>
      </root>
    </mxGraphModel>
  </diagram>
  <diagram id="ibORpQpdqvWV3ZNh5GlV" name="UseCase">
    <mxGraphModel dx="2117" dy="669" grid="1" gridSize="10" guides="1" tooltips="1" connect="1" arrows="1" fold="1" page="1" pageScale="1" pageWidth="827" pageHeight="1169" math="0" shadow="0">
      <root>
        <mxCell id="0" />
        <mxCell id="1" parent="0" />
        <mxCell id="T0t9DLjLKxVR53NmVYEj-1" value="" style="rounded=1;whiteSpace=wrap;html=1;" vertex="1" parent="1">
          <mxGeometry x="186" y="130" width="753" height="287" as="geometry" />
        </mxCell>
        <mxCell id="T0t9DLjLKxVR53NmVYEj-2" value="user" style="shape=umlActor;verticalLabelPosition=bottom;verticalAlign=top;html=1;outlineConnect=0;" vertex="1" parent="1">
          <mxGeometry x="-150" y="250" width="30" height="60" as="geometry" />
        </mxCell>
        <mxCell id="T0t9DLjLKxVR53NmVYEj-3" value="create a backup job" style="ellipse;whiteSpace=wrap;html=1;" vertex="1" parent="1">
          <mxGeometry x="26" y="152" width="120" height="50" as="geometry" />
        </mxCell>
        <mxCell id="T0t9DLjLKxVR53NmVYEj-4" value="" style="endArrow=none;html=1;rounded=0;exitX=1;exitY=0.3333333333333333;exitDx=0;exitDy=0;exitPerimeter=0;entryX=0;entryY=0.5;entryDx=0;entryDy=0;" edge="1" parent="1" source="T0t9DLjLKxVR53NmVYEj-2" target="T0t9DLjLKxVR53NmVYEj-3">
          <mxGeometry width="50" height="50" relative="1" as="geometry">
            <mxPoint x="40" y="360" as="sourcePoint" />
            <mxPoint x="90" y="310" as="targetPoint" />
          </mxGeometry>
        </mxCell>
        <mxCell id="T0t9DLjLKxVR53NmVYEj-5" value="check the backups" style="ellipse;whiteSpace=wrap;html=1;" vertex="1" parent="1">
          <mxGeometry x="31" y="532" width="120" height="50" as="geometry" />
        </mxCell>
        <mxCell id="T0t9DLjLKxVR53NmVYEj-6" value="" style="endArrow=none;html=1;rounded=0;exitX=1;exitY=0.3333333333333333;exitDx=0;exitDy=0;exitPerimeter=0;entryX=0;entryY=0.5;entryDx=0;entryDy=0;" edge="1" parent="1" source="T0t9DLjLKxVR53NmVYEj-2" target="T0t9DLjLKxVR53NmVYEj-5">
          <mxGeometry width="50" height="50" relative="1" as="geometry">
            <mxPoint x="40" y="360" as="sourcePoint" />
            <mxPoint x="90" y="310" as="targetPoint" />
          </mxGeometry>
        </mxCell>
        <mxCell id="T0t9DLjLKxVR53NmVYEj-7" value="access to the logs" style="ellipse;whiteSpace=wrap;html=1;" vertex="1" parent="1">
          <mxGeometry x="531" y="532" width="120" height="50" as="geometry" />
        </mxCell>
        <mxCell id="T0t9DLjLKxVR53NmVYEj-8" value="" style="endArrow=none;html=1;rounded=0;entryX=0;entryY=0.5;entryDx=0;entryDy=0;exitX=1;exitY=0.5;exitDx=0;exitDy=0;" edge="1" parent="1" source="T0t9DLjLKxVR53NmVYEj-5" target="T0t9DLjLKxVR53NmVYEj-7">
          <mxGeometry width="50" height="50" relative="1" as="geometry">
            <mxPoint x="41" y="532" as="sourcePoint" />
            <mxPoint x="311" y="547" as="targetPoint" />
          </mxGeometry>
        </mxCell>
        <mxCell id="T0t9DLjLKxVR53NmVYEj-9" value="delete a backup job" style="ellipse;whiteSpace=wrap;html=1;" vertex="1" parent="1">
          <mxGeometry x="20" y="220" width="120" height="50" as="geometry" />
        </mxCell>
        <mxCell id="T0t9DLjLKxVR53NmVYEj-10" value="" style="endArrow=none;html=1;rounded=0;entryX=0;entryY=0.5;entryDx=0;entryDy=0;exitX=1;exitY=0.3333333333333333;exitDx=0;exitDy=0;exitPerimeter=0;" edge="1" parent="1" source="T0t9DLjLKxVR53NmVYEj-2" target="T0t9DLjLKxVR53NmVYEj-9">
          <mxGeometry width="50" height="50" relative="1" as="geometry">
            <mxPoint x="40" y="360" as="sourcePoint" />
            <mxPoint x="90" y="310" as="targetPoint" />
          </mxGeometry>
        </mxCell>
        <mxCell id="T0t9DLjLKxVR53NmVYEj-11" value="daily logs" style="ellipse;whiteSpace=wrap;html=1;" vertex="1" parent="1">
          <mxGeometry x="704" y="492" width="120" height="50" as="geometry" />
        </mxCell>
        <mxCell id="T0t9DLjLKxVR53NmVYEj-12" value="state logs" style="ellipse;whiteSpace=wrap;html=1;" vertex="1" parent="1">
          <mxGeometry x="708" y="572" width="120" height="50" as="geometry" />
        </mxCell>
        <mxCell id="T0t9DLjLKxVR53NmVYEj-13" value="" style="endArrow=none;html=1;rounded=0;exitX=1;exitY=0.5;exitDx=0;exitDy=0;entryX=0;entryY=0.5;entryDx=0;entryDy=0;" edge="1" parent="1" source="T0t9DLjLKxVR53NmVYEj-7" target="T0t9DLjLKxVR53NmVYEj-11">
          <mxGeometry width="50" height="50" relative="1" as="geometry">
            <mxPoint x="671" y="492" as="sourcePoint" />
            <mxPoint x="708" y="527" as="targetPoint" />
          </mxGeometry>
        </mxCell>
        <mxCell id="T0t9DLjLKxVR53NmVYEj-14" value="" style="endArrow=none;html=1;rounded=0;exitX=1;exitY=0.5;exitDx=0;exitDy=0;entryX=0;entryY=0.5;entryDx=0;entryDy=0;" edge="1" parent="1" source="T0t9DLjLKxVR53NmVYEj-7" target="T0t9DLjLKxVR53NmVYEj-12">
          <mxGeometry width="50" height="50" relative="1" as="geometry">
            <mxPoint x="391" y="542" as="sourcePoint" />
            <mxPoint x="441" y="492" as="targetPoint" />
          </mxGeometry>
        </mxCell>
        <mxCell id="T0t9DLjLKxVR53NmVYEj-15" value="execute left backup jobs" style="ellipse;whiteSpace=wrap;html=1;" vertex="1" parent="1">
          <mxGeometry x="20" y="360" width="120" height="50" as="geometry" />
        </mxCell>
        <mxCell id="T0t9DLjLKxVR53NmVYEj-16" value="" style="endArrow=none;html=1;rounded=0;entryX=1;entryY=0.3333333333333333;entryDx=0;entryDy=0;entryPerimeter=0;exitX=0;exitY=0.5;exitDx=0;exitDy=0;" edge="1" parent="1" source="T0t9DLjLKxVR53NmVYEj-15" target="T0t9DLjLKxVR53NmVYEj-2">
          <mxGeometry width="50" height="50" relative="1" as="geometry">
            <mxPoint x="40" y="360" as="sourcePoint" />
            <mxPoint x="90" y="310" as="targetPoint" />
          </mxGeometry>
        </mxCell>
        <mxCell id="T0t9DLjLKxVR53NmVYEj-17" value="create daily logs" style="ellipse;whiteSpace=wrap;html=1;" vertex="1" parent="1">
          <mxGeometry x="800" y="260" width="120" height="50" as="geometry" />
        </mxCell>
        <mxCell id="T0t9DLjLKxVR53NmVYEj-18" value="create state logs" style="ellipse;whiteSpace=wrap;html=1;" vertex="1" parent="1">
          <mxGeometry x="800" y="340" width="120" height="50" as="geometry" />
        </mxCell>
        <mxCell id="T0t9DLjLKxVR53NmVYEj-19" value="" style="endArrow=none;dashed=1;html=1;rounded=0;entryX=0;entryY=0.5;entryDx=0;entryDy=0;exitX=1;exitY=0.5;exitDx=0;exitDy=0;" edge="1" parent="1" source="T0t9DLjLKxVR53NmVYEj-15" target="T0t9DLjLKxVR53NmVYEj-18">
          <mxGeometry width="50" height="50" relative="1" as="geometry">
            <mxPoint x="390" y="370" as="sourcePoint" />
            <mxPoint x="440" y="320" as="targetPoint" />
          </mxGeometry>
        </mxCell>
        <mxCell id="T0t9DLjLKxVR53NmVYEj-20" value="&amp;lt;&amp;lt;include&amp;gt;&amp;gt;" style="edgeLabel;html=1;align=center;verticalAlign=middle;resizable=0;points=[];" vertex="1" connectable="0" parent="T0t9DLjLKxVR53NmVYEj-19">
          <mxGeometry x="0.057" y="4" relative="1" as="geometry">
            <mxPoint as="offset" />
          </mxGeometry>
        </mxCell>
        <mxCell id="T0t9DLjLKxVR53NmVYEj-21" value="" style="endArrow=none;dashed=1;html=1;rounded=0;entryX=0;entryY=0.5;entryDx=0;entryDy=0;exitX=1;exitY=0.5;exitDx=0;exitDy=0;" edge="1" parent="1" source="T0t9DLjLKxVR53NmVYEj-15" target="T0t9DLjLKxVR53NmVYEj-17">
          <mxGeometry width="50" height="50" relative="1" as="geometry">
            <mxPoint x="390" y="370" as="sourcePoint" />
            <mxPoint x="440" y="320" as="targetPoint" />
          </mxGeometry>
        </mxCell>
        <mxCell id="T0t9DLjLKxVR53NmVYEj-22" value="&amp;lt;&amp;lt;include&amp;gt;&amp;gt;" style="edgeLabel;html=1;align=center;verticalAlign=middle;resizable=0;points=[];" vertex="1" connectable="0" parent="T0t9DLjLKxVR53NmVYEj-21">
          <mxGeometry x="0.0299" y="-4" relative="1" as="geometry">
            <mxPoint y="-1" as="offset" />
          </mxGeometry>
        </mxCell>
        <mxCell id="T0t9DLjLKxVR53NmVYEj-23" value="configure a backup job" style="ellipse;whiteSpace=wrap;html=1;" vertex="1" parent="1">
          <mxGeometry x="310" y="150" width="120" height="50" as="geometry" />
        </mxCell>
        <mxCell id="T0t9DLjLKxVR53NmVYEj-24" value="" style="endArrow=none;dashed=1;html=1;rounded=0;exitX=1;exitY=0.5;exitDx=0;exitDy=0;entryX=0;entryY=0.5;entryDx=0;entryDy=0;" edge="1" parent="1" source="T0t9DLjLKxVR53NmVYEj-3" target="T0t9DLjLKxVR53NmVYEj-23">
          <mxGeometry width="50" height="50" relative="1" as="geometry">
            <mxPoint x="160" y="180" as="sourcePoint" />
            <mxPoint x="250" y="165" as="targetPoint" />
          </mxGeometry>
        </mxCell>
        <mxCell id="T0t9DLjLKxVR53NmVYEj-25" value="&amp;lt;&amp;lt;include&amp;gt;&amp;gt;" style="edgeLabel;html=1;align=center;verticalAlign=middle;resizable=0;points=[];" vertex="1" connectable="0" parent="T0t9DLjLKxVR53NmVYEj-24">
          <mxGeometry x="0.0104" y="-1" relative="1" as="geometry">
            <mxPoint as="offset" />
          </mxGeometry>
        </mxCell>
        <mxCell id="T0t9DLjLKxVR53NmVYEj-26" value="execute the job" style="ellipse;whiteSpace=wrap;html=1;" vertex="1" parent="1">
          <mxGeometry x="550" y="150" width="120" height="50" as="geometry" />
        </mxCell>
        <mxCell id="T0t9DLjLKxVR53NmVYEj-27" value="" style="endArrow=none;dashed=1;html=1;rounded=0;entryX=0;entryY=0.5;entryDx=0;entryDy=0;exitX=1;exitY=0.5;exitDx=0;exitDy=0;" edge="1" parent="1" source="T0t9DLjLKxVR53NmVYEj-23" target="T0t9DLjLKxVR53NmVYEj-26">
          <mxGeometry width="50" height="50" relative="1" as="geometry">
            <mxPoint x="610" y="230" as="sourcePoint" />
            <mxPoint x="660" y="180" as="targetPoint" />
          </mxGeometry>
        </mxCell>
        <mxCell id="T0t9DLjLKxVR53NmVYEj-28" value="&amp;lt;&amp;lt;include&amp;gt;&amp;gt;" style="edgeLabel;html=1;align=center;verticalAlign=middle;resizable=0;points=[];" vertex="1" connectable="0" parent="T0t9DLjLKxVR53NmVYEj-27">
          <mxGeometry x="0.0229" y="-2" relative="1" as="geometry">
            <mxPoint as="offset" />
          </mxGeometry>
        </mxCell>
        <mxCell id="T0t9DLjLKxVR53NmVYEj-29" value="" style="endArrow=none;dashed=1;html=1;rounded=0;entryX=0.5;entryY=1;entryDx=0;entryDy=0;exitX=0;exitY=0.5;exitDx=0;exitDy=0;" edge="1" parent="1" source="T0t9DLjLKxVR53NmVYEj-17" target="T0t9DLjLKxVR53NmVYEj-26">
          <mxGeometry width="50" height="50" relative="1" as="geometry">
            <mxPoint x="390" y="170" as="sourcePoint" />
            <mxPoint x="440" y="120" as="targetPoint" />
            <Array as="points" />
          </mxGeometry>
        </mxCell>
        <mxCell id="T0t9DLjLKxVR53NmVYEj-30" value="&amp;lt;&amp;lt;include&amp;gt;&amp;gt;" style="edgeLabel;html=1;align=center;verticalAlign=middle;resizable=0;points=[];" vertex="1" connectable="0" parent="T0t9DLjLKxVR53NmVYEj-29">
          <mxGeometry x="0.008" y="-1" relative="1" as="geometry">
            <mxPoint as="offset" />
          </mxGeometry>
        </mxCell>
        <mxCell id="T0t9DLjLKxVR53NmVYEj-31" value="" style="endArrow=none;dashed=1;html=1;rounded=0;entryX=0.5;entryY=1;entryDx=0;entryDy=0;exitX=0;exitY=0.5;exitDx=0;exitDy=0;" edge="1" parent="1" source="T0t9DLjLKxVR53NmVYEj-18" target="T0t9DLjLKxVR53NmVYEj-26">
          <mxGeometry width="50" height="50" relative="1" as="geometry">
            <mxPoint x="555" y="220" as="sourcePoint" />
            <mxPoint x="605" y="170" as="targetPoint" />
            <Array as="points" />
          </mxGeometry>
        </mxCell>
        <mxCell id="T0t9DLjLKxVR53NmVYEj-32" value="&amp;lt;&amp;lt;include&amp;gt;&amp;gt;" style="edgeLabel;html=1;align=center;verticalAlign=middle;resizable=0;points=[];" vertex="1" connectable="0" parent="T0t9DLjLKxVR53NmVYEj-31">
          <mxGeometry x="-0.0622" relative="1" as="geometry">
            <mxPoint x="-9" y="-17" as="offset" />
          </mxGeometry>
        </mxCell>
        <mxCell id="T0t9DLjLKxVR53NmVYEj-33" value="edit a backup job" style="ellipse;whiteSpace=wrap;html=1;" vertex="1" parent="1">
          <mxGeometry x="20" y="290" width="120" height="50" as="geometry" />
        </mxCell>
        <mxCell id="T0t9DLjLKxVR53NmVYEj-34" value="" style="endArrow=none;html=1;rounded=0;exitX=1;exitY=0.3333333333333333;exitDx=0;exitDy=0;exitPerimeter=0;entryX=0;entryY=0.5;entryDx=0;entryDy=0;" edge="1" parent="1" source="T0t9DLjLKxVR53NmVYEj-2" target="T0t9DLjLKxVR53NmVYEj-33">
          <mxGeometry width="50" height="50" relative="1" as="geometry">
            <mxPoint x="390" y="270" as="sourcePoint" />
            <mxPoint x="440" y="220" as="targetPoint" />
          </mxGeometry>
        </mxCell>
        <mxCell id="T0t9DLjLKxVR53NmVYEj-35" value="stop left backup jobs" style="ellipse;whiteSpace=wrap;html=1;" vertex="1" parent="1">
          <mxGeometry x="23" y="441" width="120" height="50" as="geometry" />
        </mxCell>
        <mxCell id="T0t9DLjLKxVR53NmVYEj-36" value="stop backup jobs" style="ellipse;whiteSpace=wrap;html=1;" vertex="1" parent="1">
          <mxGeometry x="29" y="83" width="120" height="50" as="geometry" />
        </mxCell>
        <mxCell id="T0t9DLjLKxVR53NmVYEj-37" value="" style="endArrow=none;html=1;rounded=0;entryX=0;entryY=0.5;entryDx=0;entryDy=0;exitX=1;exitY=0.3333333333333333;exitDx=0;exitDy=0;exitPerimeter=0;" edge="1" parent="1" source="T0t9DLjLKxVR53NmVYEj-2" target="T0t9DLjLKxVR53NmVYEj-36">
          <mxGeometry width="50" height="50" relative="1" as="geometry">
            <mxPoint x="-30" y="163" as="sourcePoint" />
            <mxPoint x="20" y="113" as="targetPoint" />
          </mxGeometry>
        </mxCell>
        <mxCell id="T0t9DLjLKxVR53NmVYEj-38" value="" style="endArrow=none;html=1;rounded=0;entryX=1;entryY=0.3333333333333333;entryDx=0;entryDy=0;entryPerimeter=0;exitX=0;exitY=0.5;exitDx=0;exitDy=0;" edge="1" parent="1" source="T0t9DLjLKxVR53NmVYEj-35" target="T0t9DLjLKxVR53NmVYEj-2">
          <mxGeometry width="50" height="50" relative="1" as="geometry">
            <mxPoint x="386" y="369" as="sourcePoint" />
            <mxPoint x="436" y="319" as="targetPoint" />
          </mxGeometry>
        </mxCell>
        <mxCell id="T0t9DLjLKxVR53NmVYEj-39" value="source" style="shape=umlActor;verticalLabelPosition=bottom;verticalAlign=top;html=1;outlineConnect=0;" vertex="1" parent="1">
          <mxGeometry x="972" y="144" width="30" height="60" as="geometry" />
        </mxCell>
        <mxCell id="T0t9DLjLKxVR53NmVYEj-40" value="logs" style="shape=umlActor;verticalLabelPosition=bottom;verticalAlign=top;html=1;outlineConnect=0;" vertex="1" parent="1">
          <mxGeometry x="970" y="349" width="30" height="60" as="geometry" />
        </mxCell>
        <mxCell id="T0t9DLjLKxVR53NmVYEj-41" value="destination" style="shape=umlActor;verticalLabelPosition=bottom;verticalAlign=top;html=1;outlineConnect=0;" vertex="1" parent="1">
          <mxGeometry x="972" y="239" width="30" height="60" as="geometry" />
        </mxCell>
        <mxCell id="T0t9DLjLKxVR53NmVYEj-42" value="" style="endArrow=none;html=1;rounded=0;exitX=1;exitY=0.5;exitDx=0;exitDy=0;entryX=0;entryY=0.3333333333333333;entryDx=0;entryDy=0;entryPerimeter=0;" edge="1" parent="1" source="T0t9DLjLKxVR53NmVYEj-17" target="T0t9DLjLKxVR53NmVYEj-39">
          <mxGeometry width="50" height="50" relative="1" as="geometry">
            <mxPoint x="870" y="242" as="sourcePoint" />
            <mxPoint x="920" y="192" as="targetPoint" />
          </mxGeometry>
        </mxCell>
        <mxCell id="T0t9DLjLKxVR53NmVYEj-43" value="" style="endArrow=none;html=1;rounded=0;exitX=1;exitY=0.5;exitDx=0;exitDy=0;entryX=0;entryY=0.3333333333333333;entryDx=0;entryDy=0;entryPerimeter=0;" edge="1" parent="1" source="T0t9DLjLKxVR53NmVYEj-17" target="T0t9DLjLKxVR53NmVYEj-41">
          <mxGeometry width="50" height="50" relative="1" as="geometry">
            <mxPoint x="637" y="294" as="sourcePoint" />
            <mxPoint x="687" y="244" as="targetPoint" />
          </mxGeometry>
        </mxCell>
        <mxCell id="T0t9DLjLKxVR53NmVYEj-44" value="" style="endArrow=none;html=1;rounded=0;exitX=1;exitY=0.5;exitDx=0;exitDy=0;entryX=0;entryY=0.3333333333333333;entryDx=0;entryDy=0;entryPerimeter=0;" edge="1" parent="1" source="T0t9DLjLKxVR53NmVYEj-17" target="T0t9DLjLKxVR53NmVYEj-40">
          <mxGeometry width="50" height="50" relative="1" as="geometry">
            <mxPoint x="637" y="294" as="sourcePoint" />
            <mxPoint x="687" y="244" as="targetPoint" />
          </mxGeometry>
        </mxCell>
        <mxCell id="T0t9DLjLKxVR53NmVYEj-45" value="" style="endArrow=none;html=1;rounded=0;exitX=1;exitY=0.5;exitDx=0;exitDy=0;entryX=0;entryY=0.3333333333333333;entryDx=0;entryDy=0;entryPerimeter=0;" edge="1" parent="1" source="T0t9DLjLKxVR53NmVYEj-18" target="T0t9DLjLKxVR53NmVYEj-40">
          <mxGeometry width="50" height="50" relative="1" as="geometry">
            <mxPoint x="637" y="294" as="sourcePoint" />
            <mxPoint x="687" y="244" as="targetPoint" />
          </mxGeometry>
        </mxCell>
        <mxCell id="T0t9DLjLKxVR53NmVYEj-46" value="" style="endArrow=none;html=1;rounded=0;exitX=1;exitY=0.5;exitDx=0;exitDy=0;entryX=0;entryY=0.3333333333333333;entryDx=0;entryDy=0;entryPerimeter=0;" edge="1" parent="1" source="T0t9DLjLKxVR53NmVYEj-18" target="T0t9DLjLKxVR53NmVYEj-41">
          <mxGeometry width="50" height="50" relative="1" as="geometry">
            <mxPoint x="637" y="294" as="sourcePoint" />
            <mxPoint x="687" y="244" as="targetPoint" />
          </mxGeometry>
        </mxCell>
        <mxCell id="T0t9DLjLKxVR53NmVYEj-47" value="" style="endArrow=none;html=1;rounded=0;exitX=1;exitY=0.5;exitDx=0;exitDy=0;entryX=0;entryY=0.3333333333333333;entryDx=0;entryDy=0;entryPerimeter=0;" edge="1" parent="1" source="T0t9DLjLKxVR53NmVYEj-18" target="T0t9DLjLKxVR53NmVYEj-39">
          <mxGeometry width="50" height="50" relative="1" as="geometry">
            <mxPoint x="637" y="294" as="sourcePoint" />
            <mxPoint x="687" y="244" as="targetPoint" />
          </mxGeometry>
        </mxCell>
      </root>
    </mxGraphModel>
  </diagram>
  <diagram id="jtlNkmDP8LG8J_wM9mvQ" name="Sequential">
    <mxGraphModel dx="2117" dy="669" grid="1" gridSize="10" guides="1" tooltips="1" connect="1" arrows="1" fold="1" page="1" pageScale="1" pageWidth="827" pageHeight="1169" math="0" shadow="0">
      <root>
        <mxCell id="0" />
        <mxCell id="1" parent="0" />
        <mxCell id="jO6jQzn5rFKo3xxHTI6q-1" value="Manager" style="rounded=0;whiteSpace=wrap;html=1;" vertex="1" parent="1">
          <mxGeometry x="80" y="80" width="120" height="60" as="geometry" />
        </mxCell>
        <mxCell id="jO6jQzn5rFKo3xxHTI6q-2" value="Jobs" style="rounded=0;whiteSpace=wrap;html=1;" vertex="1" parent="1">
          <mxGeometry x="318.76" y="80" width="120" height="60" as="geometry" />
        </mxCell>
        <mxCell id="jO6jQzn5rFKo3xxHTI6q-3" value="Status" style="rounded=0;whiteSpace=wrap;html=1;" vertex="1" parent="1">
          <mxGeometry x="560" y="80" width="120" height="60" as="geometry" />
        </mxCell>
        <mxCell id="jO6jQzn5rFKo3xxHTI6q-4" value="User" style="shape=umlActor;verticalLabelPosition=bottom;verticalAlign=top;html=1;outlineConnect=0;" vertex="1" parent="1">
          <mxGeometry x="-140" y="60" width="30" height="60" as="geometry" />
        </mxCell>
        <mxCell id="jO6jQzn5rFKo3xxHTI6q-5" value="" style="rounded=0;whiteSpace=wrap;html=1;" vertex="1" parent="1">
          <mxGeometry x="130" y="160" width="20" height="580" as="geometry" />
        </mxCell>
        <mxCell id="jO6jQzn5rFKo3xxHTI6q-6" value="" style="rounded=0;whiteSpace=wrap;html=1;" vertex="1" parent="1">
          <mxGeometry x="-135" y="160" width="20" height="580" as="geometry" />
        </mxCell>
        <mxCell id="jO6jQzn5rFKo3xxHTI6q-7" value="" style="endArrow=none;dashed=1;html=1;rounded=0;entryX=0.5;entryY=1;entryDx=0;entryDy=0;" edge="1" parent="1" target="jO6jQzn5rFKo3xxHTI6q-1">
          <mxGeometry width="50" height="50" relative="1" as="geometry">
            <mxPoint x="140" y="790" as="sourcePoint" />
            <mxPoint x="440" y="360" as="targetPoint" />
          </mxGeometry>
        </mxCell>
        <mxCell id="jO6jQzn5rFKo3xxHTI6q-8" value="" style="endArrow=none;dashed=1;html=1;rounded=0;entryX=0.5;entryY=1;entryDx=0;entryDy=0;" edge="1" parent="1">
          <mxGeometry width="50" height="50" relative="1" as="geometry">
            <mxPoint x="-125.50000000000045" y="800" as="sourcePoint" />
            <mxPoint x="-125.50000000000045" y="150" as="targetPoint" />
          </mxGeometry>
        </mxCell>
        <mxCell id="jO6jQzn5rFKo3xxHTI6q-9" value="Logs" style="rounded=0;whiteSpace=wrap;html=1;" vertex="1" parent="1">
          <mxGeometry x="760" y="80" width="120" height="60" as="geometry" />
        </mxCell>
        <mxCell id="jO6jQzn5rFKo3xxHTI6q-10" value="" style="endArrow=none;dashed=1;html=1;rounded=0;entryX=0.5;entryY=1;entryDx=0;entryDy=0;" edge="1" parent="1" target="jO6jQzn5rFKo3xxHTI6q-2">
          <mxGeometry width="50" height="50" relative="1" as="geometry">
            <mxPoint x="378.76" y="790" as="sourcePoint" />
            <mxPoint x="378.26" y="220" as="targetPoint" />
          </mxGeometry>
        </mxCell>
        <mxCell id="jO6jQzn5rFKo3xxHTI6q-11" value="" style="rounded=0;whiteSpace=wrap;html=1;" vertex="1" parent="1">
          <mxGeometry x="368.76" y="170" width="20" height="460" as="geometry" />
        </mxCell>
        <mxCell id="jO6jQzn5rFKo3xxHTI6q-12" value="" style="rounded=0;whiteSpace=wrap;html=1;" vertex="1" parent="1">
          <mxGeometry x="610" y="360" width="20" height="220" as="geometry" />
        </mxCell>
        <mxCell id="jO6jQzn5rFKo3xxHTI6q-13" value="" style="endArrow=none;dashed=1;html=1;rounded=0;entryX=0.5;entryY=1;entryDx=0;entryDy=0;" edge="1" parent="1" target="jO6jQzn5rFKo3xxHTI6q-3">
          <mxGeometry width="50" height="50" relative="1" as="geometry">
            <mxPoint x="619.5000000000005" y="810" as="sourcePoint" />
            <mxPoint x="619.5" y="160" as="targetPoint" />
          </mxGeometry>
        </mxCell>
        <mxCell id="jO6jQzn5rFKo3xxHTI6q-14" value="" style="endArrow=classic;html=1;rounded=0;exitX=1;exitY=0;exitDx=0;exitDy=0;entryX=0;entryY=0;entryDx=0;entryDy=0;" edge="1" parent="1" source="jO6jQzn5rFKo3xxHTI6q-6" target="jO6jQzn5rFKo3xxHTI6q-5">
          <mxGeometry width="50" height="50" relative="1" as="geometry">
            <mxPoint x="390" y="500" as="sourcePoint" />
            <mxPoint x="440" y="450" as="targetPoint" />
          </mxGeometry>
        </mxCell>
        <mxCell id="jO6jQzn5rFKo3xxHTI6q-15" value="1 : Demande de création d&#39;un job&amp;nbsp;" style="edgeLabel;html=1;align=center;verticalAlign=middle;resizable=0;points=[];" vertex="1" connectable="0" parent="jO6jQzn5rFKo3xxHTI6q-14">
          <mxGeometry x="-0.298" y="-3" relative="1" as="geometry">
            <mxPoint x="19" y="-13" as="offset" />
          </mxGeometry>
        </mxCell>
        <mxCell id="jO6jQzn5rFKo3xxHTI6q-16" value="" style="endArrow=classic;html=1;rounded=0;" edge="1" parent="1">
          <mxGeometry width="50" height="50" relative="1" as="geometry">
            <mxPoint x="160" y="200" as="sourcePoint" />
            <mxPoint x="360" y="200" as="targetPoint" />
          </mxGeometry>
        </mxCell>
        <mxCell id="jO6jQzn5rFKo3xxHTI6q-17" value="2 : Création d&#39;un Job&amp;nbsp;" style="edgeLabel;html=1;align=center;verticalAlign=middle;resizable=0;points=[];" vertex="1" connectable="0" parent="jO6jQzn5rFKo3xxHTI6q-16">
          <mxGeometry x="-0.4095" y="1" relative="1" as="geometry">
            <mxPoint x="58" y="-9" as="offset" />
          </mxGeometry>
        </mxCell>
        <mxCell id="jO6jQzn5rFKo3xxHTI6q-18" value="" style="endArrow=classic;html=1;rounded=0;" edge="1" parent="1">
          <mxGeometry width="50" height="50" relative="1" as="geometry">
            <mxPoint x="388.76" y="360" as="sourcePoint" />
            <mxPoint x="610" y="360" as="targetPoint" />
            <Array as="points">
              <mxPoint x="508.76" y="360" />
            </Array>
          </mxGeometry>
        </mxCell>
        <mxCell id="jO6jQzn5rFKo3xxHTI6q-19" value="Mets le status en &quot;Actif&quot;" style="edgeLabel;html=1;align=center;verticalAlign=middle;resizable=0;points=[];" vertex="1" connectable="0" parent="jO6jQzn5rFKo3xxHTI6q-18">
          <mxGeometry x="-0.4095" y="1" relative="1" as="geometry">
            <mxPoint x="53" y="-9" as="offset" />
          </mxGeometry>
        </mxCell>
        <mxCell id="jO6jQzn5rFKo3xxHTI6q-20" value="" style="rounded=0;whiteSpace=wrap;html=1;" vertex="1" parent="1">
          <mxGeometry x="810" y="440" width="20" height="190" as="geometry" />
        </mxCell>
        <mxCell id="jO6jQzn5rFKo3xxHTI6q-21" value="" style="endArrow=classic;html=1;rounded=0;entryX=0;entryY=0;entryDx=0;entryDy=0;" edge="1" parent="1" target="jO6jQzn5rFKo3xxHTI6q-34">
          <mxGeometry width="50" height="50" relative="1" as="geometry">
            <mxPoint x="390" y="390" as="sourcePoint" />
            <mxPoint x="1040" y="390" as="targetPoint" />
          </mxGeometry>
        </mxCell>
        <mxCell id="jO6jQzn5rFKo3xxHTI6q-22" value="Mettre à jour la progression de la sauvegarde" style="edgeLabel;html=1;align=center;verticalAlign=middle;resizable=0;points=[];" vertex="1" connectable="0" parent="jO6jQzn5rFKo3xxHTI6q-21">
          <mxGeometry x="-0.4095" y="1" relative="1" as="geometry">
            <mxPoint x="-73" y="-9" as="offset" />
          </mxGeometry>
        </mxCell>
        <mxCell id="jO6jQzn5rFKo3xxHTI6q-23" value="" style="endArrow=classic;html=1;rounded=0;" edge="1" parent="1">
          <mxGeometry width="50" height="50" relative="1" as="geometry">
            <mxPoint x="370" y="600" as="sourcePoint" />
            <mxPoint x="160" y="600" as="targetPoint" />
          </mxGeometry>
        </mxCell>
        <mxCell id="jO6jQzn5rFKo3xxHTI6q-24" value="Envoie l&#39;information que le Jobs est arrété" style="edgeLabel;html=1;align=center;verticalAlign=middle;resizable=0;points=[];" vertex="1" connectable="0" parent="jO6jQzn5rFKo3xxHTI6q-23">
          <mxGeometry x="-0.4095" y="1" relative="1" as="geometry">
            <mxPoint x="-48" y="-11" as="offset" />
          </mxGeometry>
        </mxCell>
        <mxCell id="jO6jQzn5rFKo3xxHTI6q-25" value="" style="endArrow=classic;html=1;rounded=0;" edge="1" parent="1">
          <mxGeometry width="50" height="50" relative="1" as="geometry">
            <mxPoint x="130" y="630" as="sourcePoint" />
            <mxPoint x="-110" y="630" as="targetPoint" />
          </mxGeometry>
        </mxCell>
        <mxCell id="jO6jQzn5rFKo3xxHTI6q-26" value="Sauvegarde effectué&amp;nbsp;&amp;nbsp;" style="edgeLabel;html=1;align=center;verticalAlign=middle;resizable=0;points=[];" vertex="1" connectable="0" parent="jO6jQzn5rFKo3xxHTI6q-25">
          <mxGeometry x="-0.4095" y="1" relative="1" as="geometry">
            <mxPoint x="-49" y="-11" as="offset" />
          </mxGeometry>
        </mxCell>
        <mxCell id="jO6jQzn5rFKo3xxHTI6q-27" value="" style="endArrow=classic;html=1;rounded=0;" edge="1" parent="1">
          <mxGeometry width="50" height="50" relative="1" as="geometry">
            <mxPoint x="388.76" y="220" as="sourcePoint" />
            <mxPoint x="388.76" y="260" as="targetPoint" />
            <Array as="points">
              <mxPoint x="428.76" y="220" />
              <mxPoint x="428.76" y="260" />
            </Array>
          </mxGeometry>
        </mxCell>
        <mxCell id="jO6jQzn5rFKo3xxHTI6q-28" value="Config le Job" style="edgeLabel;html=1;align=center;verticalAlign=middle;resizable=0;points=[];" vertex="1" connectable="0" parent="jO6jQzn5rFKo3xxHTI6q-27">
          <mxGeometry x="-0.1253" relative="1" as="geometry">
            <mxPoint x="40" y="8" as="offset" />
          </mxGeometry>
        </mxCell>
        <mxCell id="jO6jQzn5rFKo3xxHTI6q-29" value="" style="endArrow=classic;html=1;rounded=0;" edge="1" parent="1">
          <mxGeometry width="50" height="50" relative="1" as="geometry">
            <mxPoint x="830" y="439.9999999999999" as="sourcePoint" />
            <mxPoint x="830" y="479.9999999999999" as="targetPoint" />
            <Array as="points">
              <mxPoint x="870" y="440" />
              <mxPoint x="870" y="480" />
            </Array>
          </mxGeometry>
        </mxCell>
        <mxCell id="jO6jQzn5rFKo3xxHTI6q-30" value="Enregistrement du fichier log" style="edgeLabel;html=1;align=center;verticalAlign=middle;resizable=0;points=[];" vertex="1" connectable="0" parent="jO6jQzn5rFKo3xxHTI6q-29">
          <mxGeometry x="-0.1253" relative="1" as="geometry">
            <mxPoint x="70" y="8" as="offset" />
          </mxGeometry>
        </mxCell>
        <mxCell id="jO6jQzn5rFKo3xxHTI6q-31" value="" style="endArrow=classic;html=1;rounded=0;" edge="1" parent="1">
          <mxGeometry width="50" height="50" relative="1" as="geometry">
            <mxPoint x="388.76" y="439.9999999999999" as="sourcePoint" />
            <mxPoint x="810" y="440" as="targetPoint" />
          </mxGeometry>
        </mxCell>
        <mxCell id="jO6jQzn5rFKo3xxHTI6q-32" value="Ecriture du fichier Logs" style="edgeLabel;html=1;align=center;verticalAlign=middle;resizable=0;points=[];" vertex="1" connectable="0" parent="jO6jQzn5rFKo3xxHTI6q-31">
          <mxGeometry x="-0.4095" y="1" relative="1" as="geometry">
            <mxPoint x="-45" y="-9" as="offset" />
          </mxGeometry>
        </mxCell>
        <mxCell id="jO6jQzn5rFKo3xxHTI6q-33" value="Progress" style="rounded=0;whiteSpace=wrap;html=1;" vertex="1" parent="1">
          <mxGeometry x="960" y="80" width="120" height="60" as="geometry" />
        </mxCell>
        <mxCell id="jO6jQzn5rFKo3xxHTI6q-34" value="" style="rounded=0;whiteSpace=wrap;html=1;" vertex="1" parent="1">
          <mxGeometry x="1010" y="390" width="20" height="190" as="geometry" />
        </mxCell>
        <mxCell id="jO6jQzn5rFKo3xxHTI6q-35" value="" style="endArrow=none;dashed=1;html=1;rounded=0;entryX=0.5;entryY=1;entryDx=0;entryDy=0;" edge="1" parent="1" target="jO6jQzn5rFKo3xxHTI6q-9">
          <mxGeometry width="50" height="50" relative="1" as="geometry">
            <mxPoint x="819.6600000000005" y="830" as="sourcePoint" />
            <mxPoint x="820.1600000000001" y="160.0000000000001" as="targetPoint" />
          </mxGeometry>
        </mxCell>
        <mxCell id="jO6jQzn5rFKo3xxHTI6q-36" value="" style="endArrow=none;dashed=1;html=1;rounded=0;entryX=0.5;entryY=1;entryDx=0;entryDy=0;startArrow=none;" edge="1" parent="1" source="jO6jQzn5rFKo3xxHTI6q-53" target="jO6jQzn5rFKo3xxHTI6q-33">
          <mxGeometry width="50" height="50" relative="1" as="geometry">
            <mxPoint x="1019.6600000000008" y="830" as="sourcePoint" />
            <mxPoint x="1020.1599999999999" y="160.0000000000001" as="targetPoint" />
          </mxGeometry>
        </mxCell>
        <mxCell id="jO6jQzn5rFKo3xxHTI6q-37" value="" style="endArrow=classic;html=1;rounded=0;" edge="1" parent="1">
          <mxGeometry width="50" height="50" relative="1" as="geometry">
            <mxPoint x="388.76" y="479.9999999999999" as="sourcePoint" />
            <mxPoint x="810" y="480" as="targetPoint" />
          </mxGeometry>
        </mxCell>
        <mxCell id="jO6jQzn5rFKo3xxHTI6q-38" value="Transfert d&#39;info en temps réel" style="edgeLabel;html=1;align=center;verticalAlign=middle;resizable=0;points=[];" vertex="1" connectable="0" parent="jO6jQzn5rFKo3xxHTI6q-37">
          <mxGeometry x="-0.4095" y="1" relative="1" as="geometry">
            <mxPoint x="-32" y="-9" as="offset" />
          </mxGeometry>
        </mxCell>
        <mxCell id="jO6jQzn5rFKo3xxHTI6q-39" value="" style="endArrow=classic;html=1;rounded=0;" edge="1" parent="1">
          <mxGeometry width="50" height="50" relative="1" as="geometry">
            <mxPoint x="388.76" y="509.9999999999999" as="sourcePoint" />
            <mxPoint x="388.76" y="549.9999999999999" as="targetPoint" />
            <Array as="points">
              <mxPoint x="428.76" y="510" />
              <mxPoint x="428.76" y="550" />
            </Array>
          </mxGeometry>
        </mxCell>
        <mxCell id="jO6jQzn5rFKo3xxHTI6q-40" value="Stop le Jobs" style="edgeLabel;html=1;align=center;verticalAlign=middle;resizable=0;points=[];" vertex="1" connectable="0" parent="jO6jQzn5rFKo3xxHTI6q-39">
          <mxGeometry x="-0.1253" relative="1" as="geometry">
            <mxPoint x="40" y="8" as="offset" />
          </mxGeometry>
        </mxCell>
        <mxCell id="jO6jQzn5rFKo3xxHTI6q-41" value="" style="endArrow=classic;html=1;rounded=0;" edge="1" parent="1">
          <mxGeometry width="50" height="50" relative="1" as="geometry">
            <mxPoint x="388.76" y="569.9999999999999" as="sourcePoint" />
            <mxPoint x="610" y="570" as="targetPoint" />
            <Array as="points">
              <mxPoint x="508.76" y="570" />
            </Array>
          </mxGeometry>
        </mxCell>
        <mxCell id="jO6jQzn5rFKo3xxHTI6q-42" value="Mets le status en &quot;Inactif&quot;" style="edgeLabel;html=1;align=center;verticalAlign=middle;resizable=0;points=[];" vertex="1" connectable="0" parent="jO6jQzn5rFKo3xxHTI6q-41">
          <mxGeometry x="-0.4095" y="1" relative="1" as="geometry">
            <mxPoint x="53" y="-9" as="offset" />
          </mxGeometry>
        </mxCell>
        <mxCell id="jO6jQzn5rFKo3xxHTI6q-43" value="" style="endArrow=classic;html=1;rounded=0;" edge="1" parent="1">
          <mxGeometry width="50" height="50" relative="1" as="geometry">
            <mxPoint x="160" y="684" as="sourcePoint" />
            <mxPoint x="370" y="684" as="targetPoint" />
          </mxGeometry>
        </mxCell>
        <mxCell id="jO6jQzn5rFKo3xxHTI6q-44" value="Suppression du Jobs" style="edgeLabel;html=1;align=center;verticalAlign=middle;resizable=0;points=[];" vertex="1" connectable="0" parent="jO6jQzn5rFKo3xxHTI6q-43">
          <mxGeometry x="-0.4095" y="1" relative="1" as="geometry">
            <mxPoint x="58" y="-9" as="offset" />
          </mxGeometry>
        </mxCell>
        <mxCell id="jO6jQzn5rFKo3xxHTI6q-45" value="" style="shape=umlDestroy;whiteSpace=wrap;html=1;strokeWidth=3;" vertex="1" parent="1">
          <mxGeometry x="363.76" y="670" width="30" height="30" as="geometry" />
        </mxCell>
        <mxCell id="jO6jQzn5rFKo3xxHTI6q-46" value="" style="endArrow=classic;html=1;rounded=0;" edge="1" parent="1">
          <mxGeometry width="50" height="50" relative="1" as="geometry">
            <mxPoint x="388.7600000000002" y="289.9999999999999" as="sourcePoint" />
            <mxPoint x="388.7600000000002" y="329.9999999999999" as="targetPoint" />
            <Array as="points">
              <mxPoint x="428.76" y="290" />
              <mxPoint x="428.76" y="330" />
            </Array>
          </mxGeometry>
        </mxCell>
        <mxCell id="jO6jQzn5rFKo3xxHTI6q-47" value="Start le Job" style="edgeLabel;html=1;align=center;verticalAlign=middle;resizable=0;points=[];" vertex="1" connectable="0" parent="jO6jQzn5rFKo3xxHTI6q-46">
          <mxGeometry x="-0.1253" relative="1" as="geometry">
            <mxPoint x="40" y="8" as="offset" />
          </mxGeometry>
        </mxCell>
        <mxCell id="jO6jQzn5rFKo3xxHTI6q-48" value="" style="endArrow=classic;html=1;rounded=0;exitX=1;exitY=0;exitDx=0;exitDy=0;entryX=0;entryY=0;entryDx=0;entryDy=0;" edge="1" parent="1">
          <mxGeometry width="50" height="50" relative="1" as="geometry">
            <mxPoint x="-115" y="669.9999999999999" as="sourcePoint" />
            <mxPoint x="130" y="670.0000000000008" as="targetPoint" />
          </mxGeometry>
        </mxCell>
        <mxCell id="jO6jQzn5rFKo3xxHTI6q-49" value="Demande de suppresion d&#39;un job&amp;nbsp;" style="edgeLabel;html=1;align=center;verticalAlign=middle;resizable=0;points=[];" vertex="1" connectable="0" parent="jO6jQzn5rFKo3xxHTI6q-48">
          <mxGeometry x="-0.298" y="-3" relative="1" as="geometry">
            <mxPoint x="19" y="-13" as="offset" />
          </mxGeometry>
        </mxCell>
        <mxCell id="jO6jQzn5rFKo3xxHTI6q-50" value="" style="endArrow=classic;html=1;rounded=0;" edge="1" parent="1">
          <mxGeometry width="50" height="50" relative="1" as="geometry">
            <mxPoint x="388.76" y="590" as="sourcePoint" />
            <mxPoint x="1000" y="590" as="targetPoint" />
          </mxGeometry>
        </mxCell>
        <mxCell id="jO6jQzn5rFKo3xxHTI6q-51" value="Suppression de la progression du Job&lt;br&gt;" style="edgeLabel;html=1;align=center;verticalAlign=middle;resizable=0;points=[];" vertex="1" connectable="0" parent="jO6jQzn5rFKo3xxHTI6q-50">
          <mxGeometry x="-0.4095" y="1" relative="1" as="geometry">
            <mxPoint x="-80" y="-9" as="offset" />
          </mxGeometry>
        </mxCell>
        <mxCell id="jO6jQzn5rFKo3xxHTI6q-52" value="" style="endArrow=none;dashed=1;html=1;rounded=0;entryX=0.5;entryY=1;entryDx=0;entryDy=0;" edge="1" parent="1" target="jO6jQzn5rFKo3xxHTI6q-53">
          <mxGeometry width="50" height="50" relative="1" as="geometry">
            <mxPoint x="1019.6600000000008" y="830" as="sourcePoint" />
            <mxPoint x="1020" y="140" as="targetPoint" />
          </mxGeometry>
        </mxCell>
        <mxCell id="jO6jQzn5rFKo3xxHTI6q-53" value="" style="shape=umlDestroy;whiteSpace=wrap;html=1;strokeWidth=3;" vertex="1" parent="1">
          <mxGeometry x="1005" y="576" width="30" height="30" as="geometry" />
        </mxCell>
      </root>
    </mxGraphModel>
  </diagram>
</mxfile>
